<?xml version="1.0" standalone="no"?>
<!DOCTYPE svg PUBLIC "-//W3C//DTD SVG 1.0//EN"
"http://www.w3.org/TR/2001/REC-SVG-20010904/DTD/svg10.dtd">

<svg width="1220px" height="820px" viewBox="0 0 1220 820" version="1.0" xmlns="http://www.w3.org/2000/svg">

<g transform="translate(0,820)">
<g transform="scale(1,-1)">
<path d=" M 10.0 10.0 L 1210.0 10.0 L 1210.0 810.0 L 10.0 810.0 L 10.0 10.0"
 style="fill:none; stroke:#b3b3da; stroke-opacity:1.0; stroke-width:0.8; " />

<path d=" M 837.6 21.2 L 823.6 35.6 L 814.3 42.9 L 802.5 52.8 L 789.0 60.9 L 774.4 65.0 L 761.5 65.1 L 770.8 49.9 L 782.7 30.5 L 803.0 10.0 L 848.8 10.0 L 837.6 21.2 z M 771.5 10.4 L 757.0 10.9 L 748.2 10.3 L 734.7 30.9 L 722.5 56.3 L 713.8 48.0 L 705.5 43.7 L 693.6 35.8 L 683.7 28.2 L 674.0 21.4 L 665.5 15.5 L 657.3 10.2 L 657.0 10.0 L 774.2 10.0 L 771.5 10.4 z M 74.5 15.2 L 77.4 25.2 L 78.8 34.8 L 79.7 41.6 L 82.3 55.5 L 84.0 60.8 L 86.6 65.4 L 87.1 65.9 L 89.3 68.2 L 98.3 31.2 L 108.0 10.0 L 164.8 10.0 L 165.7 14.4 L 165.7 18.8 L 164.6 25.9 L 165.0 32.2 L 165.9 35.0 L 167.0 38.3 L 170.4 42.3 L 174.0 43.8 L 181.1 45.2 L 173.6 65.9 L 170.5 78.0 L 170.3 79.0 L 151.5 115.7 L 147.6 123.4 L 141.4 132.2 L 156.5 130.3 L 174.8 135.6 L 192.4 147.3 L 206.1 158.4 L 212.6 165.6 L 217.2 170.2 L 224.4 175.4 L 234.2 179.3 L 242.6 181.9 L 251.8 181.2 L 260.3 181.2 L 269.4 181.2 L 275.9 183.9 L 291.6 192.3 L 293.5 195.0 L 294.9 196.9 L 303.3 198.9 L 313.1 202.1 L 322.9 208.0 L 332.1 213.9 L 342.5 219.8 L 347.1 222.4 L 347.3 222.4 L 354.9 224.3 L 364.7 225.0 L 376.4 227.6 L 387.5 233.5 L 389.5 235.1 L 394.3 232.1 L 395.9 230.7 L 398.3 228.8 L 409.1 235.4 L 422.8 241.9 L 428.7 245.9 L 435.0 251.2 L 438.9 247.8 L 440.2 246.7 L 447.0 242.1 L 447.3 241.8 L 449.9 242.7 L 456.7 245.2 L 472.4 254.4 L 481.5 259.6 L 497.8 265.5 L 507.0 266.1 L 514.3 268.5 L 512.4 274.8 L 518.5 279.6 L 526.6 288.2 L 533.5 295.1 L 542.7 298.0 L 556.0 300.9 L 573.8 303.7 L 575.6 304.0 L 588.2 306.0 L 606.6 308.9 L 625.7 314.2 L 638.7 304.2 L 645.1 299.6 L 660.7 301.1 L 719.1 304.6 L 756.9 306.1 L 764.7 306.4 L 758.2 314.6 L 753.9 319.3 L 763.9 321.3 L 773.9 323.9 L 786.4 324.7 L 804.7 325.5 L 828.9 325.5 L 845.5 328.9 L 858.9 331.3 L 866.8 334.4 L 874.0 326.7 L 878.0 325.5 L 890.5 328.0 L 906.4 330.5 L 929.7 335.5 L 941.4 342.2 L 949.7 348.9 L 958.0 360.5 L 961.4 370.5 L 968.0 380.5 L 977.2 385.5 L 988.0 386.4 L 996.4 384.7 L 1020.5 382.2 L 1033.0 386.4 L 1041.4 389.7 L 1051.4 393.9 L 1068.1 399.7 L 1080.6 409.7 L 1097.2 418.9 L 1107.2 428.0 L 1119.7 440.5 L 1127.2 453.9 L 1132.2 467.2 L 1135.6 482.2 L 1133.9 498.9 L 1136.4 507.2 L 1142.2 515.5 L 1148.1 518.9 L 1153.1 523.0 L 1154.7 543.0 L 1154.7 561.4 L 1151.4 578.9 L 1148.1 590.6 L 1137.2 603.9 L 1128.1 613.0 L 1122.2 619.7 L 1124.7 623.9 L 1131.4 623.0 L 1138.9 618.9 L 1150.6 612.2 L 1165.6 605.6 L 1174.3 600.4 L 1183.3 602.7 L 1185.6 608.3 L 1186.3 618.8 L 1184.5 630.4 L 1183.9 640.7 L 1184.9 649.0 L 1189.4 659.7 L 1197.0 669.2 L 1210.0 677.0 L 1210.0 794.2 L 1200.6 796.4 L 1185.6 803.1 L 1172.2 809.7 L 1167.5 810.0 L 1061.4 810.0 L 1061.4 809.9 L 1061.0 806.4 L 1060.0 801.8 L 1058.6 798.4 L 1054.7 794.2 L 1047.5 789.3 L 1038.5 784.9 L 1030.0 781.6 L 1021.0 778.6 L 1012.4 773.4 L 1010.1 767.4 L 1009.6 763.5 L 1003.8 757.1 L 993.6 755.3 L 981.1 755.9 L 966.8 757.1 L 953.4 758.4 L 940.6 758.1 L 927.2 757.9 L 909.0 758.3 L 891.0 758.4 L 878.0 757.5 L 868.1 755.8 L 856.9 746.9 L 857.9 743.0 L 857.2 737.5 L 855.1 736.0 L 850.4 736.4 L 842.3 740.8 L 835.8 740.0 L 827.5 736.0 L 823.1 730.6 L 822.7 724.3 L 825.0 717.4 L 828.7 708.7 L 829.2 700.5 L 827.0 694.1 L 824.1 690.7 L 823.4 689.3 L 823.0 687.8 L 822.9 686.8 L 822.9 685.9 L 823.2 685.0 L 823.6 684.2 L 824.2 683.4 L 825.4 682.4 L 828.2 680.3 L 830.0 678.7 L 831.3 677.4 L 832.1 676.3 L 832.6 675.5 L 833.0 674.6 L 833.1 673.6 L 833.1 673.1 L 833.1 672.7 L 833.0 672.3 L 832.7 672.0 L 832.4 671.7 L 832.0 671.5 L 831.1 671.3 L 829.5 671.2 L 827.3 671.1 L 825.3 670.8 L 823.4 670.3 L 821.3 669.6 L 818.0 668.1 L 815.8 667.2 L 813.9 666.5 L 811.8 666.1 L 806.7 665.3 L 805.2 665.0 L 803.8 664.5 L 803.1 664.1 L 802.5 663.6 L 802.2 663.2 L 802.0 662.9 L 801.9 662.5 L 801.7 661.7 L 801.8 660.3 L 802.0 658.9 L 804.6 653.8 L 809.5 648.7 L 812.7 644.3 L 813.5 639.7 L 812.6 634.4 L 807.1 625.5 L 797.8 617.7 L 785.5 611.8 L 776.0 609.3 L 766.8 606.7 L 757.2 605.0 L 745.3 604.4 L 734.8 604.5 L 723.8 603.8 L 713.1 601.2 L 703.5 597.0 L 696.2 592.1 L 691.1 585.9 L 686.1 576.7 L 682.1 572.0 L 676.4 569.8 L 671.0 569.2 L 666.8 568.2 L 662.0 562.9 L 657.9 559.6 L 654.7 558.1 L 654.3 557.7 L 649.8 559.4 L 640.6 554.8 L 632.0 548.5 L 621.6 541.6 L 580.7 532.9 L 539.8 526.0 L 524.9 524.0 L 514.3 525.5 L 491.8 528.7 L 473.0 522.0 L 461.5 516.2 L 450.0 511.6 L 438.5 508.7 L 425.2 508.7 L 416.0 508.7 L 395.3 505.3 L 376.3 506.4 L 359.6 504.1 L 345.2 500.1 L 330.8 496.1 L 318.1 494.9 L 306.6 492.6 L 301.1 491.2 L 288.0 500.9 L 279.1 507.3 L 278.3 508.3 L 261.7 509.3 L 244.4 512.8 L 235.2 516.8 L 227.7 519.1 L 222.5 521.4 L 214.5 520.3 L 213.3 517.4 L 213.3 513.9 L 208.7 511.0 L 197.8 512.2 L 189.7 515.1 L 182.8 519.1 L 171.9 520.8 L 163.8 521.4 L 152.9 519.7 L 145.4 515.6 L 138.5 512.8 L 132.1 510.5 L 117.7 508.2 L 100.5 513.3 L 88.4 520.8 L 68.2 528.9 L 51.5 536.4 L 36.6 542.7 L 25.6 546.7 L 17.0 548.5 L 10.1 548.5 L 10.0 548.5 L 10.0 487.6 L 18.8 487.5 L 34.1 487.0 L 43.7 486.8 L 64.0 483.7 L 88.4 480.5 L 110.6 477.5 L 133.0 474.5 L 148.6 472.5 L 168.9 470.0 L 186.0 468.4 L 199.8 467.8 L 211.0 468.0 L 217.1 468.1 L 226.2 468.4 L 241.1 469.0 L 260.0 468.7 L 276.1 468.4 L 287.1 468.7 L 301.5 470.5 L 309.2 471.7 L 326.3 475.1 L 338.4 477.3 L 350.6 474.0 L 369.0 468.3 L 383.3 475.2 L 388.9 476.7 L 395.3 478.3 L 406.7 480.8 L 417.8 482.6 L 429.0 484.4 L 440.5 486.2 L 450.2 487.9 L 461.0 489.9 L 472.4 493.4 L 482.9 496.7 L 493.8 500.7 L 510.3 504.9 L 522.2 507.2 L 533.2 509.7 L 544.7 513.0 L 572.4 518.6 L 596.8 516.6 L 605.3 518.9 L 608.7 519.3 L 612.4 519.9 L 617.7 521.1 L 624.2 522.2 L 632.0 523.9 L 654.0 528.3 L 662.2 529.7 L 680.4 529.9 L 706.5 532.7 L 733.3 541.2 L 753.1 548.3 L 774.2 554.6 L 795.4 563.8 L 818.7 571.5 L 839.8 577.9 L 865.9 584.2 L 882.1 592.0 L 896.2 596.2 L 904.7 602.6 L 911.1 606.1 L 925.9 608.2 L 951.3 606.8 L 983.7 601.2 L 1009.8 594.8 L 1021.8 591.3 L 1037.3 584.9 L 1051.4 577.2 L 1061.3 568.7 L 1067.6 559.5 L 1074.0 548.3 L 1078.2 534.8 L 1084.5 527.1 L 1089.5 522.9 L 1093.0 518.6 L 1094.4 505.2 L 1086.0 481.2 L 1074.7 465.7 L 1066.2 456.6 L 1051.4 444.6 L 1028.8 435.4 L 998.5 429.8 L 974.5 427.6 L 949.1 423.4 L 933.6 418.5 L 917.4 409.3 L 906.1 402.3 L 896.2 391.7 L 875.8 382.5 L 859.6 374.0 L 845.4 366.3 L 839.1 363.1 L 832.7 369.8 L 817.8 365.1 L 799.4 360.8 L 785.4 354.3 L 763.8 349.4 L 750.3 348.3 L 736.2 346.2 L 730.1 345.7 L 735.1 340.1 L 722.0 339.5 L 683.2 340.9 L 657.8 336.7 L 635.3 332.4 L 610.6 325.9 L 607.9 328.0 L 595.7 326.3 L 581.4 324.4 L 572.8 323.4 L 563.0 322.6 L 552.5 322.3 L 544.7 321.4 L 533.7 320.2 L 527.0 318.9 L 519.9 317.6 L 511.1 315.6 L 504.5 314.3 L 500.4 313.5 L 486.6 309.6 L 489.4 306.5 L 485.4 305.3 L 479.6 304.0 L 467.8 302.0 L 455.4 300.7 L 441.7 297.4 L 425.4 294.2 L 401.2 287.6 L 394.7 285.2 L 381.4 296.9 L 376.7 301.1 L 375.0 298.9 L 373.3 297.3 L 369.4 294.8 L 363.9 291.3 L 358.5 288.4 L 351.2 284.6 L 342.2 279.9 L 329.9 273.3 L 317.9 266.8 L 310.2 261.0 L 306.2 266.6 L 302.4 263.1 L 298.5 261.8 L 295.9 260.9 L 291.2 259.6 L 283.0 256.8 L 273.5 255.4 L 264.7 254.1 L 253.3 253.5 L 240.5 253.1 L 228.7 251.5 L 218.9 248.8 L 207.0 243.8 L 198.3 238.2 L 192.5 235.2 L 201.0 230.9 L 196.6 226.5 L 188.6 222.1 L 173.3 220.0 L 149.1 217.8 L 134.3 211.2 L 120.0 203.2 L 104.7 195.4 L 117.0 178.7 L 128.8 159.0 L 140.5 133.5 L 140.0 133.6 L 137.1 134.5 L 130.5 136.1 L 119.3 137.3 L 109.5 137.2 L 97.6 134.7 L 90.6 130.7 L 82.6 123.6 L 68.5 113.2 L 51.2 130.4 L 49.3 133.0 L 15.5 157.3 L 10.0 160.4 L 10.0 10.0 L 71.2 10.0 L 74.5 15.2 z M 252.4 728.4 L 258.7 733.0 L 266.2 738.9 L 275.2 742.9 L 285.4 744.7 L 296.1 748.2 L 303.7 753.3 L 311.2 759.7 L 319.7 767.6 L 326.4 777.6 L 331.0 787.9 L 332.3 798.8 L 331.7 810.0 L 312.8 810.0 L 312.1 807.5 L 308.0 797.7 L 301.3 787.1 L 291.5 777.9 L 281.6 770.7 L 272.6 764.6 L 260.3 761.1 L 249.3 760.5 L 240.0 760.4 L 234.9 760.8 L 227.1 761.7 L 215.6 762.1 L 202.4 764.3 L 188.5 771.9 L 178.2 779.7 L 170.1 790.0 L 167.6 799.5 L 168.3 807.6 L 169.5 810.0 L 142.4 810.0 L 140.6 799.3 L 142.1 788.3 L 146.6 780.4 L 151.4 772.6 L 158.3 764.2 L 167.4 758.1 L 176.7 755.1 L 186.0 753.7 L 196.5 752.7 L 206.9 750.7 L 211.8 748.5 L 216.0 746.8 L 224.1 744.9 L 233.1 741.1 L 238.0 732.9 L 242.2 726.8 L 246.4 726.1 L 252.4 728.4 z M 536.5 628.1 L 538.5 633.4 L 541.1 638.8 L 544.9 643.5 L 547.8 646.5 L 550.8 649.4 L 552.4 650.8 L 557.8 654.3 L 541.4 671.5 L 541.3 673.6 L 541.3 675.1 L 541.1 681.2 L 541.4 691.7 L 542.1 696.0 L 540.7 710.4 L 543.6 719.7 L 546.5 731.3 L 548.3 740.6 L 553.0 757.6 L 556.9 765.3 L 566.3 777.9 L 567.2 783.4 L 566.6 794.8 L 555.9 805.2 L 551.2 810.0 L 530.1 810.0 L 531.2 805.1 L 530.4 797.4 L 526.5 787.8 L 522.2 775.8 L 521.5 770.4 L 517.9 764.6 L 517.8 759.2 L 516.3 749.3 L 515.0 744.8 L 513.8 736.5 L 515.4 728.8 L 517.4 723.5 L 519.3 717.2 L 519.7 708.9 L 517.8 701.3 L 527.8 689.6 L 527.1 679.1 L 524.2 673.1 L 523.0 667.8 L 521.4 665.0 L 517.2 661.5 L 519.4 658.2 L 522.0 655.3 L 521.3 652.5 L 520.0 647.9 L 518.4 643.7 L 516.9 640.4 L 515.8 638.1 L 515.5 636.5 L 514.3 632.8 L 513.6 629.8 L 513.2 628.1 L 512.7 626.9 L 512.6 626.4 L 533.9 622.3 L 536.5 628.1 z M 580.1 637.9 L 586.9 649.7 L 593.6 662.1 L 599.8 675.8 L 605.8 694.9 L 609.1 710.4 L 612.9 726.3 L 617.9 739.0 L 623.0 748.1 L 629.5 758.1 L 634.2 768.1 L 636.6 777.1 L 635.9 787.3 L 634.8 795.1 L 633.6 799.9 L 631.5 807.8 L 630.7 810.0 L 603.9 810.0 L 603.3 800.2 L 602.7 789.7 L 602.0 784.4 L 597.5 773.7 L 593.6 763.7 L 591.3 752.2 L 590.8 741.7 L 589.7 730.0 L 587.8 717.6 L 585.5 704.9 L 582.7 692.5 L 579.0 680.3 L 576.2 674.9 L 572.6 670.2 L 567.5 665.1 L 564.1 660.9 L 562.1 658.5 L 561.0 657.2 L 557.8 654.3 L 575.5 633.0 L 580.1 637.9 z M 322.9 535.9 L 332.5 537.6 L 337.6 538.7 L 340.7 540.2 L 344.3 541.7 L 346.1 542.9 L 350.5 539.2 L 359.2 540.5 L 366.3 541.5 L 375.5 542.6 L 380.9 543.4 L 384.3 543.9 L 395.5 546.7 L 409.2 543.4 L 418.4 545.9 L 431.0 549.8 L 441.3 552.8 L 449.8 555.8 L 463.9 557.5 L 478.0 561.4 L 486.4 564.2 L 493.8 567.6 L 502.2 569.9 L 510.7 570.5 L 522.0 571.0 L 533.0 574.7 L 542.2 575.3 L 553.0 577.9 L 562.0 580.3 L 569.8 582.6 L 578.0 585.6 L 585.0 588.5 L 589.5 590.3 L 595.7 592.7 L 599.6 594.7 L 608.9 599.0 L 611.5 601.2 L 615.2 603.9 L 620.3 607.5 L 626.4 611.5 L 633.9 619.1 L 641.1 629.6 L 648.2 647.5 L 650.9 657.4 L 655.6 670.6 L 661.4 677.8 L 669.0 684.1 L 670.4 690.0 L 668.6 697.1 L 668.6 704.6 L 671.2 710.9 L 674.4 718.0 L 676.5 728.5 L 679.0 738.5 L 682.7 750.0 L 686.2 759.0 L 690.1 769.2 L 695.9 776.4 L 701.9 781.5 L 703.9 785.0 L 703.8 792.0 L 701.6 795.6 L 698.2 797.8 L 693.5 799.2 L 686.0 801.6 L 682.0 803.7 L 680.1 807.6 L 679.6 810.0 L 655.8 810.0 L 656.4 805.7 L 656.3 796.8 L 655.3 789.9 L 654.2 783.6 L 654.2 778.2 L 653.2 773.8 L 650.8 766.1 L 647.7 759.5 L 642.9 753.0 L 636.9 746.4 L 630.6 726.9 L 633.2 718.0 L 634.9 712.9 L 636.0 703.3 L 633.3 694.1 L 628.1 683.3 L 625.7 673.3 L 624.8 664.3 L 625.1 657.5 L 625.1 648.2 L 620.3 636.8 L 616.4 629.2 L 611.9 624.1 L 606.8 621.1 L 602.2 617.1 L 599.5 615.0 L 597.3 613.2 L 596.8 612.8 L 575.5 633.0 L 568.4 630.5 L 564.3 627.6 L 560.5 624.9 L 558.7 623.4 L 557.3 622.2 L 555.4 620.7 L 553.7 618.9 L 553.2 618.5 L 552.4 617.0 L 533.9 622.3 L 526.4 620.4 L 516.7 616.5 L 506.9 611.0 L 497.4 605.7 L 489.7 601.5 L 478.3 595.8 L 468.0 593.2 L 459.0 591.2 L 449.0 589.7 L 439.1 587.9 L 429.8 584.9 L 421.1 582.6 L 412.1 581.1 L 403.8 579.8 L 395.7 579.0 L 388.0 578.0 L 381.4 576.5 L 371.6 574.7 L 365.3 573.9 L 360.5 573.4 L 354.1 572.6 L 350.3 572.3 L 346.1 572.3 L 343.4 572.3 L 337.3 573.5 L 350.7 565.3 L 348.3 563.4 L 346.7 561.9 L 343.7 559.1 L 340.1 556.2 L 334.6 552.7 L 333.6 552.2 L 330.4 550.8 L 328.5 549.6 L 324.6 548.1 L 319.7 546.6 L 312.6 546.3 L 302.9 546.7 L 293.1 547.3 L 281.9 548.9 L 265.3 551.3 L 252.9 553.8 L 244.4 555.7 L 255.4 540.4 L 255.5 540.2 L 265.4 538.3 L 278.6 537.8 L 290.1 536.9 L 302.9 536.2 L 312.2 535.6 L 322.9 535.9 z M 362.5 558.6 L 363.7 559.3 L 366.9 560.1 L 370.1 560.4 L 375.2 561.4 L 381.0 562.3 L 387.8 564.3 L 393.7 565.2 L 401.0 566.9 L 411.0 568.4 L 419.9 570.5 L 431.7 573.2 L 441.3 575.5 L 449.6 577.7 L 469.3 584.2 L 480.7 587.2 L 491.2 590.8 L 502.1 595.4 L 512.4 599.4 L 529.7 603.7 L 540.3 604.7 L 548.1 605.5 L 555.0 607.3 L 561.8 610.0 L 570.3 612.8 L 588.9 607.1 L 584.7 606.3 L 574.2 601.8 L 566.7 598.2 L 558.4 594.5 L 550.2 593.2 L 542.9 592.4 L 532.9 589.6 L 525.6 586.9 L 517.8 584.3 L 509.8 581.7 L 502.8 579.6 L 493.8 576.7 L 486.0 575.6 L 476.7 573.6 L 467.7 570.9 L 456.1 567.8 L 448.2 565.8 L 439.3 562.8 L 433.4 559.9 L 426.6 556.9 L 418.3 552.9 L 412.1 550.7 L 405.5 548.9 L 401.4 547.9 L 398.2 547.4 L 395.5 546.7 L 362.5 558.6 z M 289.6 592.1 L 286.8 592.5 L 284.8 593.0 L 280.7 593.3 L 274.6 593.9 L 266.5 595.1 L 256.5 598.0 L 248.4 600.3 L 234.5 602.1 L 222.3 605.0 L 210.3 608.8 L 197.6 614.5 L 187.4 618.5 L 174.6 621.9 L 163.4 625.2 L 149.3 631.4 L 139.5 637.0 L 129.0 640.5 L 115.5 643.5 L 97.9 648.0 L 84.3 653.0 L 68.6 659.8 L 46.1 671.3 L 30.7 679.9 L 15.9 687.6 L 15.4 688.1 L 10.0 691.5 L 10.0 672.0 L 14.1 672.0 L 27.9 667.2 L 39.9 660.3 L 44.3 656.9 L 51.6 651.6 L 56.6 648.4 L 62.1 645.4 L 68.7 643.4 L 77.0 640.8 L 87.3 638.2 L 96.6 635.9 L 106.1 633.5 L 116.4 630.0 L 125.6 625.9 L 132.5 622.5 L 141.6 619.0 L 149.6 617.1 L 155.2 616.1 L 162.3 614.5 L 172.1 612.4 L 183.3 609.0 L 195.0 605.5 L 205.8 602.1 L 217.9 598.3 L 232.9 593.3 L 248.7 588.6 L 262.1 586.0 L 277.6 584.2 L 282.9 583.3 L 294.3 580.7 L 300.0 579.2 L 289.6 592.1 z M 245.5 556.7 L 246.3 557.4 L 247.5 558.7 L 250.6 561.8 L 254.5 566.0 L 257.6 568.9 L 264.5 569.7 L 272.1 568.4 L 279.4 565.3 L 285.3 563.3 L 295.3 560.8 L 304.0 559.9 L 311.8 559.6 L 318.6 559.4 L 323.5 559.7 L 314.5 565.9 L 337.3 573.5 L 325.8 582.2 L 318.2 581.8 L 312.6 581.8 L 308.7 582.2 L 307.1 582.2 L 307.0 582.2 L 300.0 579.2 L 307.6 570.6 L 306.4 570.1 L 304.9 570.0 L 301.3 569.6 L 296.4 569.8 L 287.1 570.6 L 277.1 572.6 L 266.1 574.8 L 253.2 578.2 L 240.7 582.4 L 229.5 586.2 L 217.6 589.6 L 204.6 593.2 L 202.2 594.4 L 192.9 595.3 L 182.4 597.9 L 175.1 602.9 L 165.7 608.6 L 154.8 611.2 L 143.8 612.9 L 135.5 615.7 L 123.8 619.1 L 109.8 623.0 L 97.4 627.8 L 84.6 632.1 L 67.3 637.1 L 53.1 641.4 L 42.2 644.4 L 31.4 649.5 L 22.1 654.8 L 14.1 658.9 L 12.5 658.9 L 10.0 659.3 L 10.0 617.4 L 14.5 615.8 L 18.7 614.6 L 19.1 614.4 L 26.0 611.1 L 44.1 606.6 L 58.8 600.9 L 79.6 591.9 L 98.8 588.5 L 117.9 585.7 L 131.3 581.2 L 140.9 578.3 L 167.4 572.1 L 180.7 569.4 L 192.8 567.5 L 209.0 565.0 L 219.0 560.8 L 230.3 559.2 L 244.4 555.7 L 245.5 556.7 z M 540.9 169.8 L 545.0 173.2 L 548.9 177.3 L 543.4 194.9 L 537.5 207.7 L 549.9 210.9 L 562.3 214.5 L 569.4 216.5 L 575.6 217.2 L 584.0 217.5 L 593.5 218.6 L 613.1 225.3 L 620.6 229.6 L 625.1 231.7 L 627.9 232.3 L 631.1 233.5 L 633.8 234.5 L 634.8 234.8 L 631.1 240.1 L 639.6 242.2 L 652.1 245.8 L 673.2 247.8 L 682.1 249.9 L 685.6 250.4 L 689.4 251.1 L 698.3 253.1 L 722.1 255.1 L 738.3 257.5 L 756.1 258.8 L 781.2 259.6 L 793.8 260.8 L 800.6 261.6 L 803.5 263.2 L 807.1 265.6 L 812.0 267.3 L 815.6 267.3 L 819.7 266.0 L 822.9 264.8 L 827.3 263.2 L 835.8 261.2 L 843.5 260.8 L 851.6 260.8 L 864.6 259.6 L 884.4 258.3 L 901.0 253.5 L 911.9 251.5 L 923.2 250.3 L 925.7 250.0 L 922.3 254.9 L 937.3 250.8 L 951.9 249.9 L 966.4 250.8 L 979.5 252.1 L 991.6 254.8 L 1001.6 256.3 L 1011.8 257.9 L 1020.7 259.6 L 1029.8 262.6 L 1035.7 265.1 L 1036.0 265.2 L 1044.2 272.2 L 1053.4 280.9 L 1062.6 286.3 L 1073.6 292.0 L 1088.3 299.1 L 1099.8 303.9 L 1113.4 310.1 L 1126.5 319.2 L 1135.5 326.6 L 1148.8 337.4 L 1157.3 344.4 L 1166.2 352.3 L 1176.8 363.3 L 1186.6 371.9 L 1196.7 384.9 L 1202.7 394.2 L 1208.5 403.6 L 1210.0 405.9 L 1210.0 505.0 L 1209.7 504.1 L 1203.2 494.8 L 1200.9 489.1 L 1196.7 480.3 L 1191.9 473.2 L 1184.5 463.5 L 1179.4 455.9 L 1174.4 447.1 L 1169.6 435.8 L 1164.7 424.8 L 1161.4 417.1 L 1152.7 405.5 L 1146.8 400.8 L 1129.9 389.5 L 1116.3 381.4 L 1104.7 373.3 L 1095.7 368.8 L 1085.5 361.9 L 1073.6 353.1 L 1064.2 347.9 L 1052.4 343.6 L 1042.2 342.8 L 1036.6 342.5 L 1026.4 341.7 L 1017.7 339.8 L 1012.0 336.8 L 1007.2 333.1 L 1005.5 329.2 L 1005.3 325.3 L 1005.3 320.7 L 1005.3 316.8 L 1003.7 311.2 L 997.7 303.8 L 986.3 297.6 L 975.8 295.8 L 962.9 294.3 L 952.6 296.6 L 942.6 298.8 L 933.1 299.7 L 923.8 299.8 L 918.8 298.5 L 913.1 295.6 L 907.8 293.3 L 903.4 291.2 L 897.6 289.6 L 891.0 299.5 L 890.0 299.0 L 888.7 298.6 L 885.4 297.5 L 880.9 297.5 L 873.6 297.5 L 864.9 297.6 L 855.8 297.1 L 852.5 296.8 L 847.9 296.1 L 843.5 295.6 L 836.9 294.7 L 828.6 294.7 L 818.6 294.9 L 803.9 296.4 L 785.7 296.6 L 772.5 296.5 L 785.5 282.5 L 783.1 281.5 L 780.4 281.9 L 774.8 282.6 L 765.8 282.8 L 756.3 283.1 L 747.8 283.1 L 737.3 282.8 L 726.8 282.7 L 714.2 282.4 L 699.3 282.7 L 686.6 283.8 L 678.8 283.3 L 670.8 282.5 L 669.1 282.3 L 663.7 281.5 L 662.3 281.3 L 653.9 278.7 L 644.9 275.7 L 637.7 272.0 L 631.3 269.3 L 622.3 268.8 L 614.0 269.7 L 609.7 270.1 L 606.0 270.5 L 601.1 270.5 L 590.9 270.0 L 581.9 269.4 L 571.6 267.1 L 562.0 263.9 L 548.8 258.4 L 539.1 252.7 L 531.6 247.5 L 525.9 243.2 L 523.4 241.5 L 525.6 235.9 L 520.0 233.2 L 514.2 230.4 L 506.9 225.9 L 500.1 219.3 L 491.4 209.5 L 485.9 202.4 L 517.2 185.4 L 528.2 177.5 L 537.0 167.5 L 540.9 169.8 z M 1093.7 19.0 L 1095.8 27.3 L 1100.4 35.6 L 1105.2 41.5 L 1108.9 45.4 L 1111.8 47.4 L 1117.3 50.4 L 1122.7 52.6 L 1126.4 53.6 L 1129.0 53.6 L 1131.7 53.8 L 1133.1 53.9 L 1135.4 53.9 L 1136.9 49.0 L 1140.3 49.5 L 1143.6 51.8 L 1146.6 56.6 L 1148.9 62.7 L 1151.4 71.1 L 1153.3 74.5 L 1157.1 77.7 L 1162.3 80.2 L 1169.6 81.2 L 1177.6 82.2 L 1187.1 84.5 L 1192.6 88.0 L 1198.0 93.4 L 1204.5 97.7 L 1210.0 99.0 L 1210.0 124.2 L 1206.3 124.3 L 1194.8 123.2 L 1185.6 120.3 L 1177.4 116.5 L 1171.2 113.1 L 1163.3 108.6 L 1157.5 104.0 L 1153.1 99.8 L 1151.6 97.8 L 1151.4 97.4 L 1148.8 94.4 L 1147.0 92.0 L 1145.4 89.5 L 1137.7 93.8 L 1145.0 102.2 L 1149.9 108.3 L 1157.4 113.5 L 1167.3 120.1 L 1176.8 124.8 L 1190.7 127.8 L 1204.5 128.2 L 1210.0 128.4 L 1210.0 137.2 L 1200.4 139.1 L 1187.0 139.3 L 1177.7 137.9 L 1166.2 134.4 L 1158.9 130.5 L 1149.8 122.9 L 1143.4 115.6 L 1135.2 105.3 L 1129.0 97.6 L 1113.3 105.6 L 1109.7 102.8 L 1104.4 99.4 L 1097.6 96.2 L 1088.8 93.0 L 1078.1 89.9 L 1068.8 85.8 L 1062.1 80.8 L 1056.8 76.6 L 1051.1 70.6 L 1044.7 82.4 L 1043.6 80.9 L 1042.1 78.5 L 1040.7 76.5 L 1034.9 67.0 L 1031.3 60.1 L 1027.4 54.0 L 1026.2 53.3 L 1023.1 51.3 L 1019.6 47.7 L 1014.1 40.6 L 1009.7 33.5 L 1007.3 27.6 L 1000.5 29.0 L 1000.0 28.3 L 999.8 27.5 L 998.9 24.6 L 998.4 17.8 L 998.9 10.9 L 999.3 10.0 L 1102.6 10.0 L 1093.7 19.0 z M 386.4 300.2 L 394.0 305.4 L 402.5 309.4 L 409.5 311.4 L 415.2 312.7 L 421.9 313.2 L 429.2 313.5 L 435.6 313.8 L 442.2 314.1 L 450.4 314.7 L 458.2 315.9 L 464.4 316.2 L 471.7 317.0 L 476.5 317.5 L 478.9 318.2 L 480.1 318.5 L 475.1 327.2 L 493.9 332.7 L 509.6 336.6 L 540.9 340.5 L 569.1 344.2 L 596.0 349.5 L 622.8 351.2 L 658.4 356.5 L 684.6 360.6 L 706.8 360.6 L 719.6 363.5 L 728.9 363.5 L 743.5 365.8 L 777.9 373.4 L 789.0 377.5 L 802.4 381.0 L 818.8 384.3 L 822.2 380.8 L 829.4 384.6 L 860.8 397.0 L 876.5 403.0 L 890.6 412.2 L 903.1 423.0 L 917.7 431.7 L 941.5 440.9 L 963.2 446.3 L 986.4 451.2 L 996.7 455.0 L 1008.1 463.6 L 1013.5 469.0 L 1028.1 479.3 L 1039.0 489.1 L 1050.3 503.2 L 1053.6 517.8 L 1053.0 530.8 L 1049.3 541.1 L 1040.1 557.3 L 1031.9 562.2 L 1003.8 574.1 L 983.7 577.9 L 965.9 582.2 L 939.9 584.9 L 918.8 582.8 L 903.6 576.2 L 871.1 563.8 L 844.6 556.8 L 817.5 549.2 L 794.2 541.6 L 776.9 536.7 L 753.8 531.3 L 734.0 523.6 L 711.4 517.9 L 691.0 513.7 L 671.2 511.6 L 653.6 505.2 L 635.3 503.1 L 609.9 501.0 L 597.9 498.2 L 576.7 492.5 L 555.6 489.0 L 535.1 484.1 L 512.6 481.9 L 486.9 480.0 L 479.8 479.9 L 462.7 477.5 L 451.8 475.6 L 438.7 473.3 L 429.4 471.2 L 423.5 469.7 L 414.3 466.9 L 407.3 465.0 L 402.1 463.7 L 397.8 462.9 L 397.6 462.4 L 387.3 458.3 L 369.0 468.3 L 355.6 463.9 L 343.5 462.1 L 328.8 461.7 L 310.0 461.1 L 295.4 460.4 L 280.3 459.8 L 265.5 458.2 L 255.7 457.2 L 244.0 456.1 L 238.0 455.8 L 234.0 455.3 L 229.9 454.6 L 239.0 441.7 L 220.2 442.1 L 195.8 444.3 L 173.2 446.3 L 149.8 448.4 L 126.6 450.4 L 110.1 452.0 L 91.5 453.5 L 75.4 452.9 L 65.9 451.6 L 59.0 450.1 L 56.5 449.6 L 40.3 448.3 L 32.0 449.7 L 19.1 449.6 L 10.0 450.1 L 10.0 411.6 L 13.5 411.6 L 15.2 411.3 L 34.2 411.5 L 51.3 412.6 L 69.8 412.5 L 85.4 412.8 L 101.7 412.7 L 115.4 413.8 L 127.6 414.9 L 142.7 415.9 L 154.4 415.8 L 168.5 415.1 L 182.2 414.6 L 191.9 413.9 L 204.6 413.7 L 220.5 416.1 L 241.5 416.8 L 248.3 417.8 L 252.3 418.9 L 255.3 419.3 L 254.5 420.2 L 249.0 427.8 L 248.9 427.9 L 250.1 428.5 L 260.0 432.7 L 268.8 433.7 L 278.5 435.8 L 290.0 439.2 L 303.4 441.6 L 313.6 442.6 L 321.2 443.3 L 331.4 444.2 L 343.3 444.5 L 355.0 445.1 L 364.7 447.3 L 373.8 449.8 L 380.8 451.6 L 388.1 453.3 L 392.0 454.4 L 393.4 454.9 L 402.3 446.2 L 406.1 440.7 L 408.6 437.0 L 423.0 438.1 L 434.2 440.3 L 449.1 442.6 L 460.0 444.9 L 470.8 448.6 L 482.6 452.1 L 493.9 455.6 L 499.0 456.9 L 502.9 457.7 L 504.6 458.2 L 534.3 461.5 L 561.4 463.6 L 597.7 471.2 L 618.8 476.6 L 641.0 481.5 L 665.9 484.2 L 697.9 491.8 L 733.6 499.4 L 763.4 507.5 L 798.0 512.9 L 824.0 517.2 L 844.6 523.7 L 865.2 531.3 L 882.5 537.8 L 898.2 542.1 L 913.4 547.6 L 922.0 549.2 L 933.4 549.7 L 957.8 549.2 L 970.8 549.2 L 980.5 547.6 L 987.0 542.7 L 989.2 533.5 L 985.4 527.0 L 979.4 522.6 L 970.2 516.2 L 963.2 511.8 L 957.2 505.9 L 952.9 499.4 L 951.3 492.3 L 949.6 485.3 L 946.4 480.4 L 941.0 477.2 L 937.2 476.1 L 928.5 472.8 L 920.4 469.0 L 905.2 461.5 L 895.5 454.4 L 886.8 449.6 L 877.6 444.1 L 869.5 437.6 L 860.5 432.1 L 856.2 430.5 L 836.7 425.6 L 821.6 418.6 L 805.9 410.5 L 804.2 406.1 L 797.2 402.6 L 791.9 402.0 L 775.6 399.1 L 734.2 389.7 L 704.5 385.6 L 678.8 385.6 L 635.0 379.8 L 614.6 377.5 L 590.1 371.6 L 569.5 368.3 L 558.2 365.6 L 550.6 364.0 L 530.0 361.8 L 516.5 359.7 L 499.7 355.3 L 480.7 351.0 L 459.7 345.7 L 462.4 342.2 L 462.9 341.5 L 473.5 329.9 L 465.2 327.4 L 453.6 325.1 L 443.1 324.8 L 429.7 325.9 L 422.3 327.1 L 411.4 328.0 L 402.3 328.3 L 392.3 328.0 L 385.0 325.6 L 378.5 322.4 L 373.9 319.6 L 369.5 315.7 L 367.6 314.0 L 366.9 313.3 L 366.7 313.2 L 376.7 301.1 L 381.4 296.9 L 386.4 300.2 z M 90.0 181.6 L 92.3 184.3 L 96.3 188.4 L 104.7 195.4 L 81.2 216.1 L 83.6 218.1 L 88.0 220.3 L 93.5 223.7 L 105.4 230.6 L 115.4 235.3 L 125.1 239.0 L 140.7 244.1 L 151.4 245.6 L 162.6 247.1 L 173.6 250.2 L 163.8 260.8 L 168.9 261.3 L 171.0 261.6 L 184.2 264.6 L 190.8 266.6 L 207.5 271.9 L 220.4 275.8 L 232.1 278.4 L 244.7 281.1 L 257.9 282.7 L 270.1 285.7 L 306.2 266.6 L 295.9 277.2 L 298.1 278.1 L 300.3 278.9 L 304.0 280.7 L 307.8 282.8 L 313.0 285.1 L 319.6 288.0 L 328.1 291.8 L 336.1 295.9 L 344.0 299.9 L 351.6 303.6 L 360.1 308.3 L 366.7 313.2 L 359.5 324.6 L 357.1 328.8 L 351.4 339.1 L 350.6 338.7 L 346.9 337.9 L 342.8 336.5 L 335.5 335.1 L 329.4 332.7 L 320.4 329.0 L 310.7 323.8 L 304.7 321.1 L 297.6 317.8 L 287.9 314.6 L 274.7 311.1 L 266.7 310.4 L 247.2 308.7 L 233.4 308.5 L 217.7 307.9 L 206.6 307.4 L 192.2 306.6 L 175.1 305.7 L 161.2 304.8 L 146.4 303.8 L 130.5 303.4 L 123.8 303.2 L 111.6 302.7 L 94.2 302.1 L 80.6 301.3 L 68.9 299.5 L 57.5 295.7 L 40.2 283.9 L 41.8 277.9 L 43.7 271.3 L 50.4 258.2 L 48.8 257.5 L 47.3 257.0 L 43.2 255.4 L 38.7 253.3 L 35.1 251.0 L 33.5 249.3 L 28.5 255.6 L 24.1 252.4 L 19.8 249.6 L 16.0 247.0 L 12.2 243.5 L 10.0 242.4 L 10.0 180.2 L 12.9 180.3 L 34.0 182.8 L 61.5 186.7 L 77.8 193.1 L 87.1 178.9 L 90.0 181.6 z M 1210.0 56.7 L 1205.4 53.4 L 1202.2 50.3 L 1198.9 46.4 L 1191.7 55.1 L 1189.7 53.6 L 1186.9 48.2 L 1181.2 41.9 L 1167.9 33.2 L 1157.7 28.7 L 1151.7 26.7 L 1149.4 25.5 L 1145.8 23.8 L 1140.3 18.6 L 1137.4 11.3 L 1137.3 10.0 L 1210.0 10.0 L 1210.0 56.7 z M 69.2 396.5 L 88.7 399.2 L 117.4 399.7 L 146.1 399.7 L 173.2 397.6 L 203.0 396.5 L 233.3 398.1 L 266.9 405.3 L 266.6 405.7 L 260.4 413.1 L 278.8 417.6 L 298.3 421.4 L 312.4 424.1 L 327.0 426.3 L 344.8 427.3 L 357.8 429.5 L 374.1 430.6 L 391.9 434.9 L 399.5 438.2 L 406.1 440.7 L 402.3 446.2 L 393.4 454.9 L 392.0 454.4 L 388.1 453.3 L 380.8 451.6 L 373.8 449.8 L 364.7 447.3 L 355.0 445.1 L 343.3 444.5 L 331.4 444.2 L 321.2 443.3 L 313.6 442.6 L 303.4 441.6 L 290.0 439.2 L 278.5 435.8 L 268.8 433.7 L 260.0 432.7 L 250.1 428.5 L 248.9 427.9 L 249.0 427.8 L 254.5 420.2 L 255.3 419.3 L 252.3 418.9 L 248.3 417.8 L 241.5 416.8 L 220.5 416.1 L 204.6 413.7 L 191.9 413.9 L 182.2 414.6 L 168.5 415.1 L 154.4 415.8 L 142.7 415.9 L 127.6 414.9 L 115.4 413.8 L 101.7 412.7 L 85.4 412.8 L 69.8 412.5 L 51.3 412.6 L 34.2 411.5 L 15.2 411.3 L 13.5 411.6 L 10.0 411.6 L 10.0 395.5 L 11.3 395.4 L 27.6 395.4 L 48.1 394.8 L 69.2 396.5 z M 12.2 243.5 L 16.0 247.0 L 19.8 249.6 L 24.1 252.4 L 28.5 255.6 L 33.5 249.3 L 35.1 251.0 L 38.7 253.3 L 43.2 255.4 L 47.3 257.0 L 48.8 257.5 L 50.4 258.2 L 43.7 271.3 L 41.8 277.9 L 38.7 277.1 L 31.6 275.1 L 24.8 271.9 L 18.5 269.3 L 16.0 272.7 L 11.6 277.5 L 10.3 278.8 L 10.0 278.7 L 10.0 242.4 L 12.2 243.5 z M 132.1 510.5 L 138.5 512.8 L 145.4 515.6 L 152.9 519.7 L 163.8 521.4 L 171.9 520.8 L 182.8 519.1 L 189.7 515.1 L 197.8 512.2 L 208.7 511.0 L 213.3 513.9 L 213.3 517.4 L 214.5 520.3 L 222.5 521.4 L 227.7 519.1 L 235.2 516.8 L 244.4 512.8 L 261.7 509.3 L 278.3 508.3 L 271.1 517.0 L 263.5 517.4 L 253.1 520.6 L 239.4 525.2 L 220.5 528.5 L 207.4 523.9 L 202.2 520.6 L 196.3 521.3 L 188.5 523.9 L 175.4 529.1 L 166.3 531.1 L 155.2 529.1 L 146.7 525.2 L 136.9 520.6 L 125.2 518.0 L 111.5 519.3 L 88.0 529.1 L 65.8 540.2 L 36.4 553.3 L 10.3 559.8 L 10.0 560.5 L 10.0 548.5 L 10.1 548.5 L 17.0 548.5 L 25.6 546.7 L 36.6 542.7 L 51.5 536.4 L 68.2 528.9 L 88.4 520.8 L 100.5 513.3 L 117.7 508.2 L 132.1 510.5 z M 1137.4 11.3 L 1140.3 18.6 L 1145.8 23.8 L 1149.4 25.5 L 1151.7 26.7 L 1157.7 28.7 L 1167.9 33.2 L 1181.2 41.9 L 1186.9 48.2 L 1189.7 53.6 L 1191.7 55.1 L 1198.9 46.4 L 1202.2 50.3 L 1205.4 53.4 L 1210.0 56.7 L 1210.0 65.7 L 1208.0 65.1 L 1202.7 62.7 L 1194.3 57.9 L 1190.8 56.2 L 1186.4 60.7 L 1181.1 54.3 L 1172.7 47.8 L 1169.1 44.8 L 1164.4 41.2 L 1157.8 37.6 L 1154.8 36.4 L 1148.8 33.4 L 1144.6 32.8 L 1143.9 32.5 L 1138.6 30.4 L 1133.2 28.0 L 1128.5 24.4 L 1123.7 21.4 L 1119.5 17.8 L 1118.3 14.2 L 1117.7 10.7 L 1117.9 10.0 L 1137.3 10.0 L 1137.4 11.3 z M 98.3 31.2 L 94.0 21.0 L 89.6 11.0 L 89.1 10.0 L 108.0 10.0 L 98.3 31.2 z M 188.5 24.2 L 184.9 16.8 L 181.1 10.0 L 192.7 10.0 L 188.5 24.2 z M 480.7 351.0 L 499.7 355.3 L 516.5 359.7 L 530.0 361.8 L 550.6 364.0 L 558.2 365.6 L 569.5 368.3 L 590.1 371.6 L 614.6 377.5 L 635.0 379.8 L 678.8 385.6 L 704.5 385.6 L 734.2 389.7 L 775.6 399.1 L 791.9 402.0 L 797.2 402.6 L 804.2 406.1 L 805.9 410.5 L 821.6 418.6 L 836.7 425.6 L 856.2 430.5 L 860.5 432.1 L 869.5 437.6 L 877.6 444.1 L 886.8 449.6 L 895.5 454.4 L 905.2 461.5 L 920.4 469.0 L 928.5 472.8 L 937.2 476.1 L 941.0 477.2 L 946.4 480.4 L 949.6 485.3 L 951.3 492.3 L 952.9 499.4 L 957.2 505.9 L 963.2 511.8 L 970.2 516.2 L 979.4 522.6 L 985.4 527.0 L 989.2 533.5 L 987.0 542.7 L 980.5 547.6 L 970.8 549.2 L 957.8 549.2 L 933.4 549.7 L 922.0 549.2 L 913.4 547.6 L 898.2 542.1 L 882.5 537.8 L 865.2 531.3 L 844.6 523.7 L 824.0 517.2 L 798.0 512.9 L 763.4 507.5 L 733.6 499.4 L 697.9 491.8 L 665.9 484.2 L 641.0 481.5 L 618.8 476.6 L 597.7 471.2 L 561.4 463.6 L 534.3 461.5 L 504.6 458.2 L 502.9 457.7 L 499.0 456.9 L 493.9 455.6 L 482.6 452.1 L 470.8 448.6 L 460.0 444.9 L 449.1 442.6 L 434.2 440.3 L 423.0 438.1 L 408.6 437.0 L 414.8 428.1 L 416.5 424.0 L 436.3 427.3 L 458.5 431.7 L 477.5 436.0 L 492.1 439.8 L 508.9 444.7 L 524.2 446.9 L 555.1 450.4 L 591.3 454.5 L 624.0 460.3 L 657.8 466.1 L 700.4 472.5 L 727.8 478.4 L 759.3 484.2 L 792.5 488.9 L 817.0 495.9 L 846.2 500.6 L 863.7 504.6 L 877.7 504.6 L 888.2 502.9 L 892.3 498.2 L 892.9 491.2 L 891.1 482.5 L 886.4 475.5 L 854.9 456.8 L 833.4 445.1 L 814.7 437.0 L 790.8 421.8 L 768.0 410.7 L 720.8 400.8 L 682.3 398.5 L 625.1 389.1 L 572.6 379.8 L 554.4 377.5 L 541.9 375.4 L 524.6 372.7 L 494.3 366.2 L 472.1 361.8 L 451.6 356.5 L 459.7 345.7 L 480.7 351.0 z M 304.9 570.0 L 306.4 570.1 L 307.6 570.6 L 300.0 579.2 L 294.3 580.7 L 282.9 583.3 L 277.6 584.2 L 262.1 586.0 L 248.7 588.6 L 232.9 593.3 L 217.9 598.3 L 205.8 602.1 L 195.0 605.5 L 183.3 609.0 L 172.1 612.4 L 162.3 614.5 L 155.2 616.1 L 149.6 617.1 L 141.6 619.0 L 132.5 622.5 L 125.6 625.9 L 116.4 630.0 L 106.1 633.5 L 96.6 635.9 L 87.3 638.2 L 77.0 640.8 L 68.7 643.4 L 62.1 645.4 L 56.6 648.4 L 51.6 651.6 L 44.3 656.9 L 39.9 660.3 L 27.9 667.2 L 14.1 672.0 L 10.0 672.0 L 10.0 659.3 L 12.5 658.9 L 14.1 658.9 L 22.1 654.8 L 31.4 649.5 L 42.2 644.4 L 53.1 641.4 L 67.3 637.1 L 84.6 632.1 L 97.4 627.8 L 109.8 623.0 L 123.8 619.1 L 135.5 615.7 L 143.8 612.9 L 154.8 611.2 L 165.7 608.6 L 175.1 602.9 L 182.4 597.9 L 192.9 595.3 L 202.2 594.4 L 204.6 593.2 L 217.6 589.6 L 229.5 586.2 L 240.7 582.4 L 253.2 578.2 L 266.1 574.8 L 277.1 572.6 L 287.1 570.6 L 296.4 569.8 L 301.3 569.6 L 304.9 570.0 z M 319.7 546.6 L 324.6 548.1 L 328.5 549.6 L 330.4 550.8 L 333.6 552.2 L 334.6 552.7 L 340.1 556.2 L 343.7 559.1 L 346.7 561.9 L 348.3 563.4 L 350.7 565.3 L 337.3 573.5 L 314.5 565.9 L 323.5 559.7 L 318.6 559.4 L 311.8 559.6 L 304.0 559.9 L 295.3 560.8 L 285.3 563.3 L 279.4 565.3 L 272.1 568.4 L 264.5 569.7 L 257.6 568.9 L 254.5 566.0 L 250.6 561.8 L 247.5 558.7 L 246.3 557.4 L 245.5 556.7 L 244.4 555.7 L 252.9 553.8 L 265.3 551.3 L 281.9 548.9 L 293.1 547.3 L 302.9 546.7 L 312.6 546.3 L 319.7 546.6 z M 330.2 581.9 L 336.1 581.8 L 341.6 582.0 L 344.1 582.0 L 348.9 581.9 L 354.5 581.9 L 359.7 581.9 L 363.4 582.0 L 368.2 583.2 L 375.2 585.5 L 382.6 587.7 L 391.5 590.4 L 398.4 592.0 L 407.3 594.4 L 415.8 598.0 L 424.1 601.2 L 433.9 604.4 L 443.6 606.9 L 453.3 609.2 L 463.1 610.7 L 474.0 612.0 L 481.6 613.8 L 489.4 616.0 L 505.9 624.9 L 508.2 627.7 L 478.5 633.0 L 477.6 632.0 L 475.4 630.1 L 472.7 628.1 L 469.0 625.6 L 462.0 623.3 L 452.2 621.9 L 442.5 619.1 L 433.3 615.9 L 420.7 612.4 L 407.3 608.6 L 392.0 603.8 L 379.8 600.1 L 366.4 597.3 L 351.5 595.8 L 339.6 595.1 L 328.4 595.1 L 317.0 594.7 L 325.8 582.2 L 329.0 581.7 L 330.2 581.9 z M 398.2 547.4 L 401.4 547.9 L 405.5 548.9 L 412.1 550.7 L 418.3 552.9 L 426.6 556.9 L 433.4 559.9 L 439.3 562.8 L 448.2 565.8 L 456.1 567.8 L 467.7 570.9 L 476.7 573.6 L 486.0 575.6 L 493.8 576.7 L 502.8 579.6 L 509.8 581.7 L 517.8 584.3 L 525.6 586.9 L 532.9 589.6 L 542.9 592.4 L 550.2 593.2 L 558.4 594.5 L 566.7 598.2 L 574.2 601.8 L 584.7 606.3 L 588.9 607.1 L 570.3 612.8 L 561.8 610.0 L 555.0 607.3 L 548.1 605.5 L 540.3 604.7 L 529.7 603.7 L 512.4 599.4 L 502.1 595.4 L 491.2 590.8 L 480.7 587.2 L 469.3 584.2 L 449.6 577.7 L 441.3 575.5 L 431.7 573.2 L 419.9 570.5 L 411.0 568.4 L 401.0 566.9 L 393.7 565.2 L 387.8 564.3 L 381.0 562.3 L 375.2 561.4 L 370.1 560.4 L 366.9 560.1 L 363.7 559.3 L 362.5 558.6 L 395.5 546.7 L 398.2 547.4 z M 1117.7 10.7 L 1118.3 14.2 L 1119.5 17.8 L 1123.7 21.4 L 1128.5 24.4 L 1133.2 28.0 L 1138.6 30.4 L 1143.9 32.5 L 1144.6 32.8 L 1148.8 33.4 L 1154.8 36.4 L 1157.8 37.6 L 1164.4 41.2 L 1169.1 44.8 L 1172.7 47.8 L 1181.1 54.3 L 1186.4 60.7 L 1190.8 56.2 L 1194.3 57.9 L 1202.7 62.7 L 1208.0 65.1 L 1210.0 65.7 L 1210.0 80.2 L 1202.4 77.0 L 1197.3 74.3 L 1191.6 71.4 L 1187.7 68.6 L 1185.0 67.2 L 1181.9 65.5 L 1178.4 68.2 L 1176.2 68.1 L 1167.9 67.8 L 1163.1 65.8 L 1160.6 61.7 L 1159.3 56.8 L 1159.2 52.1 L 1157.3 46.7 L 1153.5 42.4 L 1147.2 39.1 L 1140.4 38.9 L 1133.1 38.5 L 1126.0 36.5 L 1119.9 34.1 L 1113.4 30.3 L 1109.3 26.7 L 1105.2 20.8 L 1103.9 17.1 L 1103.2 13.3 L 1103.2 10.8 L 1103.1 10.0 L 1117.9 10.0 L 1117.7 10.7 z M 89.6 11.0 L 94.0 21.0 L 98.3 31.2 L 89.3 68.2 L 87.1 65.9 L 86.6 65.4 L 84.0 60.8 L 82.3 55.5 L 79.7 41.6 L 78.8 34.8 L 77.4 25.2 L 74.5 15.2 L 71.2 10.0 L 89.1 10.0 L 89.6 11.0 z M 317.9 266.8 L 329.9 273.3 L 342.2 279.9 L 351.2 284.6 L 358.5 288.4 L 363.9 291.3 L 369.4 294.8 L 373.3 297.3 L 375.0 298.9 L 376.7 301.1 L 366.7 313.2 L 360.1 308.3 L 351.6 303.6 L 344.0 299.9 L 336.1 295.9 L 328.1 291.8 L 319.6 288.0 L 313.0 285.1 L 307.8 282.8 L 304.0 280.7 L 300.3 278.9 L 298.1 278.1 L 295.9 277.2 L 306.2 266.6 L 310.2 261.0 L 317.9 266.8 z M 478.7 216.6 L 485.8 223.3 L 492.2 229.0 L 502.4 235.6 L 511.4 241.1 L 522.0 245.0 L 520.5 248.7 L 519.4 252.1 L 533.7 261.6 L 549.4 269.5 L 560.8 274.3 L 574.7 277.3 L 589.8 279.1 L 603.7 278.6 L 598.4 285.9 L 586.0 295.8 L 578.8 294.2 L 564.4 292.2 L 550.1 288.9 L 535.7 281.8 L 525.3 272.0 L 515.6 264.5 L 516.8 260.4 L 514.8 259.6 L 499.1 251.1 L 486.7 243.3 L 475.7 235.4 L 463.3 226.0 L 470.2 219.7 L 475.5 215.0 L 476.0 214.4 L 478.7 216.6 z M 366.9 313.3 L 367.6 314.0 L 369.5 315.7 L 373.9 319.6 L 378.5 322.4 L 385.0 325.6 L 392.3 328.0 L 402.3 328.3 L 411.4 328.0 L 422.3 327.1 L 429.7 325.9 L 443.1 324.8 L 453.6 325.1 L 465.2 327.4 L 473.5 329.9 L 462.9 341.5 L 454.7 340.2 L 436.3 340.7 L 412.5 345.6 L 397.4 343.4 L 381.7 339.6 L 368.1 334.8 L 357.1 328.8 L 359.5 324.6 L 366.7 313.2 L 366.9 313.3 z M 539.8 526.0 L 580.7 532.9 L 621.6 541.6 L 632.0 548.5 L 640.6 554.8 L 649.8 559.4 L 654.3 557.7 L 654.7 558.1 L 657.9 559.6 L 662.0 562.9 L 666.8 568.2 L 671.0 569.2 L 676.4 569.8 L 682.1 572.0 L 686.1 576.7 L 691.1 585.9 L 696.2 592.1 L 703.5 597.0 L 713.1 601.2 L 723.8 603.8 L 734.8 604.5 L 745.3 604.4 L 757.2 605.0 L 766.8 606.7 L 776.0 609.3 L 785.5 611.8 L 797.8 617.7 L 807.1 625.5 L 812.6 634.4 L 813.5 639.7 L 812.7 644.3 L 809.5 648.7 L 804.6 653.8 L 802.0 658.9 L 801.8 660.3 L 801.7 661.7 L 801.9 662.5 L 802.0 662.9 L 802.2 663.2 L 802.5 663.6 L 803.1 664.1 L 803.8 664.5 L 805.2 665.0 L 806.7 665.3 L 811.8 666.1 L 813.9 666.5 L 815.8 667.2 L 818.0 668.1 L 821.3 669.6 L 823.4 670.3 L 825.3 670.8 L 827.3 671.1 L 829.5 671.2 L 831.1 671.3 L 832.0 671.5 L 832.4 671.7 L 832.7 672.0 L 833.0 672.3 L 833.1 672.7 L 833.1 673.1 L 833.1 673.6 L 833.0 674.6 L 832.6 675.5 L 832.1 676.3 L 831.3 677.4 L 830.0 678.7 L 828.2 680.3 L 825.4 682.4 L 824.2 683.4 L 823.6 684.2 L 823.2 685.0 L 822.9 685.9 L 822.9 686.8 L 823.0 687.8 L 823.4 689.3 L 824.1 690.7 L 827.0 694.1 L 829.2 700.5 L 828.7 708.7 L 825.0 717.4 L 822.7 724.3 L 823.1 730.6 L 827.5 736.0 L 835.8 740.0 L 842.3 740.8 L 850.4 736.4 L 855.1 736.0 L 857.2 737.5 L 857.9 743.0 L 856.9 746.9 L 868.1 755.8 L 878.0 757.5 L 891.0 758.4 L 909.0 758.3 L 927.2 757.9 L 940.6 758.1 L 953.4 758.4 L 966.8 757.1 L 981.1 755.9 L 993.6 755.3 L 1003.8 757.1 L 1009.6 763.5 L 1010.1 767.4 L 1012.4 773.4 L 1021.0 778.6 L 1030.0 781.6 L 1038.5 784.9 L 1047.5 789.3 L 1054.7 794.2 L 1058.6 798.4 L 1060.0 801.8 L 1061.0 806.4 L 1061.4 809.9 L 1061.4 810.0 L 1042.4 810.0 L 1039.6 807.2 L 1030.4 801.3 L 1018.7 798.7 L 1006.9 794.8 L 989.3 783.0 L 973.0 773.9 L 946.2 768.7 L 914.3 770.0 L 890.8 767.4 L 873.8 767.4 L 849.0 762.1 L 830.1 756.9 L 814.4 751.0 L 804.0 740.6 L 799.4 730.8 L 801.3 721.0 L 805.9 709.9 L 812.4 694.9 L 813.1 680.6 L 803.3 672.7 L 797.4 666.9 L 798.1 659.0 L 800.7 651.2 L 798.1 640.8 L 790.9 631.6 L 782.4 626.4 L 768.7 623.1 L 750.4 619.2 L 724.3 612.0 L 708.0 605.5 L 693.6 600.3 L 678.0 590.5 L 662.3 577.4 L 646.0 565.0 L 619.2 550.7 L 587.9 542.2 L 564.4 538.3 L 542.9 533.1 L 514.3 525.5 L 524.9 524.0 L 539.8 526.0 z M 1210.0 804.8 L 1195.3 810.0 L 1167.5 810.0 L 1172.2 809.7 L 1185.6 803.1 L 1200.6 796.4 L 1210.0 794.2 L 1210.0 804.8 z M 790.9 316.3 L 841.9 316.4 L 879.9 316.3 L 877.7 320.2 L 886.2 319.6 L 901.8 321.6 L 925.3 326.8 L 943.0 332.0 L 960.6 343.8 L 967.1 354.2 L 970.4 363.4 L 976.9 370.5 L 984.1 372.5 L 996.5 370.5 L 1011.5 371.2 L 1023.9 374.5 L 1043.5 382.3 L 1056.5 386.9 L 1080.0 398.6 L 1097.0 408.4 L 1122.4 428.6 L 1128.3 438.4 L 1134.2 450.8 L 1141.4 467.1 L 1145.9 482.8 L 1146.6 494.6 L 1153.1 507.0 L 1160.3 516.1 L 1164.2 522.0 L 1166.2 535.0 L 1166.8 552.0 L 1169.4 567.6 L 1172.7 577.4 L 1177.3 584.6 L 1185.8 591.8 L 1192.3 598.3 L 1196.2 611.4 L 1196.2 623.8 L 1201.4 644.7 L 1205.3 655.8 L 1210.0 659.7 L 1210.0 677.0 L 1197.0 669.2 L 1189.4 659.7 L 1184.9 649.0 L 1183.9 640.7 L 1184.5 630.4 L 1186.3 618.8 L 1185.6 608.3 L 1183.3 602.7 L 1174.3 600.4 L 1165.6 605.6 L 1150.6 612.2 L 1138.9 618.9 L 1131.4 623.0 L 1124.7 623.9 L 1122.2 619.7 L 1128.1 613.0 L 1137.2 603.9 L 1148.1 590.6 L 1151.4 578.9 L 1154.7 561.4 L 1154.7 543.0 L 1153.1 523.0 L 1148.1 518.9 L 1142.2 515.5 L 1136.4 507.2 L 1133.9 498.9 L 1135.6 482.2 L 1132.2 467.2 L 1127.2 453.9 L 1119.7 440.5 L 1107.2 428.0 L 1097.2 418.9 L 1080.6 409.7 L 1068.1 399.7 L 1051.4 393.9 L 1041.4 389.7 L 1033.0 386.4 L 1020.5 382.2 L 996.4 384.7 L 988.0 386.4 L 977.2 385.5 L 968.0 380.5 L 961.4 370.5 L 958.0 360.5 L 949.7 348.9 L 941.4 342.2 L 929.7 335.5 L 906.4 330.5 L 890.5 328.0 L 878.0 325.5 L 874.0 326.7 L 866.8 334.4 L 858.9 331.3 L 845.5 328.9 L 828.9 325.5 L 804.7 325.5 L 786.4 324.7 L 773.9 323.9 L 763.9 321.3 L 753.9 319.3 L 758.2 314.6 L 790.9 316.3 z M 184.9 16.8 L 188.5 24.2 L 185.2 33.6 L 184.8 34.6 L 181.1 45.2 L 174.0 43.8 L 170.4 42.3 L 167.0 38.3 L 165.9 35.0 L 165.0 32.2 L 164.6 25.9 L 165.7 18.8 L 165.7 14.4 L 164.8 10.0 L 181.1 10.0 L 184.9 16.8 z M 553.2 618.5 L 553.7 618.9 L 555.4 620.7 L 557.3 622.2 L 558.7 623.4 L 560.5 624.9 L 564.3 627.6 L 568.4 630.5 L 575.5 633.0 L 557.8 654.3 L 552.4 650.8 L 550.8 649.4 L 547.8 646.5 L 544.9 643.5 L 541.1 638.8 L 538.5 633.4 L 536.5 628.1 L 533.9 622.3 L 552.4 617.0 L 553.2 618.5 z M 306.6 492.6 L 318.1 494.9 L 330.8 496.1 L 345.2 500.1 L 359.6 504.1 L 376.3 506.4 L 395.3 505.3 L 416.0 508.7 L 425.2 508.7 L 438.5 508.7 L 450.0 511.6 L 461.5 516.2 L 473.0 522.0 L 491.8 528.7 L 483.2 529.9 L 477.3 530.5 L 474.3 529.1 L 461.3 524.6 L 443.7 519.3 L 430.0 519.3 L 416.3 518.7 L 401.2 517.4 L 384.3 515.4 L 367.3 515.4 L 350.3 512.2 L 330.1 507.6 L 311.2 503.0 L 288.0 500.9 L 301.1 491.2 L 306.6 492.6 z M 406.5 224.3 L 415.6 228.9 L 426.7 236.7 L 438.9 247.8 L 435.0 251.2 L 428.7 245.9 L 422.8 241.9 L 409.1 235.4 L 398.3 228.8 L 404.9 223.3 L 406.5 224.3 z M 249.3 760.5 L 260.3 761.1 L 272.6 764.6 L 281.6 770.7 L 291.5 777.9 L 301.3 787.1 L 308.0 797.7 L 312.1 807.5 L 312.8 810.0 L 169.5 810.0 L 168.3 807.6 L 167.6 799.5 L 170.1 790.0 L 178.2 779.7 L 188.5 771.9 L 202.4 764.3 L 215.6 762.1 L 227.1 761.7 L 234.9 760.8 L 240.0 760.4 L 249.3 760.5 z M 216.8 17.6 L 227.6 32.4 L 230.9 36.9 L 244.9 54.5 L 265.2 71.9 L 286.5 89.6 L 318.3 109.8 L 343.8 129.6 L 356.6 141.0 L 354.2 141.8 L 346.6 137.6 L 338.9 133.7 L 330.8 129.4 L 322.1 125.4 L 313.6 121.2 L 307.6 118.1 L 298.8 112.7 L 292.2 109.4 L 284.9 106.5 L 280.4 104.2 L 273.6 98.8 L 266.8 93.2 L 259.3 87.3 L 252.7 81.1 L 245.7 74.3 L 239.1 67.4 L 231.2 58.8 L 224.7 51.5 L 218.4 43.9 L 211.3 36.2 L 209.0 32.9 L 204.4 26.4 L 198.1 15.5 L 193.8 10.0 L 209.3 10.0 L 216.8 17.6 z M 179.7 71.0 L 188.6 79.9 L 198.1 88.8 L 209.2 98.0 L 222.0 107.2 L 233.9 116.7 L 242.9 124.6 L 253.1 133.4 L 259.2 139.1 L 262.7 142.6 L 267.2 146.4 L 271.5 149.9 L 274.6 152.1 L 277.6 153.8 L 278.5 154.4 L 292.4 150.8 L 314.4 156.3 L 327.2 161.5 L 339.1 167.0 L 353.0 174.4 L 366.3 182.3 L 375.8 188.2 L 385.2 193.6 L 392.5 197.6 L 400.0 199.8 L 404.5 200.9 L 409.5 203.0 L 414.1 205.1 L 416.6 207.2 L 420.3 208.7 L 412.4 216.8 L 383.0 205.4 L 371.9 198.9 L 358.2 191.0 L 345.8 185.8 L 336.6 181.2 L 325.5 176.0 L 317.1 171.5 L 306.0 166.2 L 275.9 162.3 L 262.2 160.4 L 258.3 159.1 L 255.0 156.4 L 251.8 150.6 L 247.9 142.7 L 238.7 137.5 L 228.3 132.3 L 217.8 127.1 L 204.1 118.6 L 194.4 111.4 L 186.5 100.3 L 180.0 89.9 L 175.4 83.3 L 170.5 78.0 L 173.6 65.9 L 179.7 71.0 z M 120.0 203.2 L 134.3 211.2 L 149.1 217.8 L 173.3 220.0 L 188.6 222.1 L 196.6 226.5 L 201.0 230.9 L 192.5 235.2 L 198.3 238.2 L 207.0 243.8 L 218.9 248.8 L 228.7 251.5 L 240.5 253.1 L 253.3 253.5 L 264.7 254.1 L 273.5 255.4 L 283.0 256.8 L 291.2 259.6 L 295.9 260.9 L 298.5 261.8 L 302.4 263.1 L 306.2 266.6 L 270.1 285.7 L 257.9 282.7 L 244.7 281.1 L 232.1 278.4 L 220.4 275.8 L 207.5 271.9 L 190.8 266.6 L 184.2 264.6 L 171.0 261.6 L 168.9 261.3 L 163.8 260.8 L 173.6 250.2 L 162.6 247.1 L 151.4 245.6 L 140.7 244.1 L 125.1 239.0 L 115.4 235.3 L 105.4 230.6 L 93.5 223.7 L 88.0 220.3 L 83.6 218.1 L 81.2 216.1 L 104.7 195.4 L 120.0 203.2 z M 24.8 271.9 L 31.6 275.1 L 38.7 277.1 L 41.8 277.9 L 40.2 283.9 L 34.8 300.4 L 40.5 304.4 L 52.5 309.8 L 62.7 313.6 L 81.7 316.9 L 99.6 317.4 L 112.0 316.2 L 122.3 315.3 L 144.0 316.9 L 157.0 319.0 L 179.7 320.1 L 207.9 323.9 L 232.2 324.5 L 252.8 325.5 L 268.5 328.8 L 302.6 336.9 L 325.9 347.2 L 340.1 351.1 L 342.8 348.1 L 351.4 339.1 L 357.1 328.8 L 368.1 334.8 L 381.7 339.6 L 397.4 343.4 L 412.5 345.6 L 436.3 340.7 L 454.7 340.2 L 462.9 341.5 L 462.4 342.2 L 459.7 345.7 L 451.6 356.5 L 472.1 361.8 L 494.3 366.2 L 524.6 372.7 L 541.9 375.4 L 554.4 377.5 L 572.6 379.8 L 625.1 389.1 L 682.3 398.5 L 720.8 400.8 L 768.0 410.7 L 790.8 421.8 L 814.7 437.0 L 833.4 445.1 L 854.9 456.8 L 886.4 475.5 L 891.1 482.5 L 892.9 491.2 L 892.3 498.2 L 888.2 502.9 L 877.7 504.6 L 863.7 504.6 L 846.2 500.6 L 817.0 495.9 L 792.5 488.9 L 759.3 484.2 L 727.8 478.4 L 700.4 472.5 L 657.8 466.1 L 624.0 460.3 L 591.3 454.5 L 555.1 450.4 L 524.2 446.9 L 508.9 444.7 L 492.1 439.8 L 477.5 436.0 L 458.5 431.7 L 436.3 427.3 L 416.5 424.0 L 414.8 428.1 L 408.6 437.0 L 406.1 440.7 L 399.5 438.2 L 391.9 434.9 L 374.1 430.6 L 357.8 429.5 L 344.8 427.3 L 327.0 426.3 L 312.4 424.1 L 298.3 421.4 L 278.8 417.6 L 260.4 413.1 L 266.6 405.7 L 266.9 405.3 L 233.3 398.1 L 203.0 396.5 L 173.2 397.6 L 146.1 399.7 L 117.4 399.7 L 88.7 399.2 L 69.2 396.5 L 48.1 394.8 L 27.6 395.4 L 11.3 395.4 L 10.0 395.5 L 10.0 278.7 L 10.3 278.8 L 11.6 277.5 L 16.0 272.7 L 18.5 269.3 L 24.8 271.9 z M 298.0 528.3 L 334.8 528.9 L 348.1 531.8 L 356.7 533.8 L 359.0 531.8 L 362.0 529.1 L 382.6 532.4 L 400.5 536.4 L 418.3 538.1 L 421.3 539.0 L 430.3 536.3 L 451.7 542.1 L 488.6 551.4 L 508.2 556.0 L 530.0 560.6 L 552.5 563.5 L 576.7 568.1 L 595.7 576.7 L 614.1 582.5 L 619.2 585.4 L 634.9 594.5 L 652.1 610.1 L 668.3 629.1 L 683.2 647.5 L 702.2 672.3 L 716.1 693.6 L 718.4 710.9 L 714.9 723.5 L 717.8 743.7 L 724.1 763.3 L 731.0 774.2 L 734.5 780.0 L 734.5 786.3 L 729.3 793.8 L 723.0 799.6 L 716.6 805.9 L 714.3 810.0 L 679.6 810.0 L 680.1 807.6 L 682.0 803.7 L 686.0 801.6 L 693.5 799.2 L 698.2 797.8 L 701.6 795.6 L 703.8 792.0 L 703.9 785.0 L 701.9 781.5 L 695.9 776.4 L 690.1 769.2 L 686.2 759.0 L 682.7 750.0 L 679.0 738.5 L 676.5 728.5 L 674.4 718.0 L 671.2 710.9 L 668.6 704.6 L 668.6 697.1 L 670.4 690.0 L 669.0 684.1 L 661.4 677.8 L 655.6 670.6 L 650.9 657.4 L 648.2 647.5 L 641.1 629.6 L 633.9 619.1 L 626.4 611.5 L 620.3 607.5 L 615.2 603.9 L 611.5 601.2 L 608.9 599.0 L 599.6 594.7 L 595.7 592.7 L 589.5 590.3 L 585.0 588.5 L 578.0 585.6 L 569.8 582.6 L 562.0 580.3 L 553.0 577.9 L 542.2 575.3 L 533.0 574.7 L 522.0 571.0 L 510.7 570.5 L 502.2 569.9 L 493.8 567.6 L 486.4 564.2 L 478.0 561.4 L 463.9 557.5 L 449.8 555.8 L 441.3 552.8 L 431.0 549.8 L 418.4 545.9 L 409.2 543.4 L 395.5 546.7 L 384.3 543.9 L 380.9 543.4 L 375.5 542.6 L 366.3 541.5 L 359.2 540.5 L 350.5 539.2 L 346.1 542.9 L 344.3 541.7 L 340.7 540.2 L 337.6 538.7 L 332.5 537.6 L 322.9 535.9 L 312.2 535.6 L 302.9 536.2 L 290.1 536.9 L 278.6 537.8 L 265.4 538.3 L 255.5 540.2 L 255.4 540.4 L 244.4 555.7 L 230.3 559.2 L 219.0 560.8 L 209.0 565.0 L 192.8 567.5 L 180.7 569.4 L 167.4 572.1 L 140.9 578.3 L 131.3 581.2 L 117.9 585.7 L 98.8 588.5 L 79.6 591.9 L 58.8 600.9 L 44.1 606.6 L 26.0 611.1 L 19.1 614.4 L 18.7 614.6 L 14.5 615.8 L 10.0 617.4 L 10.0 606.9 L 36.0 598.6 L 59.0 591.7 L 87.8 580.7 L 114.9 572.7 L 146.0 564.6 L 169.6 559.4 L 191.5 555.4 L 213.3 549.6 L 236.4 542.1 L 248.5 539.3 L 256.3 538.8 L 263.7 526.7 L 277.3 525.4 L 298.0 528.3 z M 893.6 810.0 L 889.9 810.0 L 892.5 809.8 L 893.6 810.0 z M 785.5 282.5 L 772.5 296.5 L 785.7 296.6 L 803.9 296.4 L 818.6 294.9 L 828.6 294.7 L 836.9 294.7 L 843.5 295.6 L 847.9 296.1 L 852.5 296.8 L 855.8 297.1 L 864.9 297.6 L 873.6 297.5 L 880.9 297.5 L 885.4 297.5 L 888.7 298.6 L 890.0 299.0 L 891.0 299.5 L 897.6 289.6 L 903.4 291.2 L 907.8 293.3 L 913.1 295.6 L 918.8 298.5 L 923.8 299.8 L 933.1 299.7 L 942.6 298.8 L 952.6 296.6 L 962.9 294.3 L 975.8 295.8 L 986.3 297.6 L 997.7 303.8 L 1003.7 311.2 L 1005.3 316.8 L 1005.3 320.7 L 1005.3 325.3 L 1005.5 329.2 L 1007.2 333.1 L 1012.0 336.8 L 1017.7 339.8 L 1026.4 341.7 L 1036.6 342.5 L 1042.2 342.8 L 1052.4 343.6 L 1064.2 347.9 L 1073.6 353.1 L 1085.5 361.9 L 1095.7 368.8 L 1104.7 373.3 L 1116.3 381.4 L 1129.9 389.5 L 1146.8 400.8 L 1152.7 405.5 L 1161.4 417.1 L 1164.7 424.8 L 1169.6 435.8 L 1174.4 447.1 L 1179.4 455.9 L 1184.5 463.5 L 1191.9 473.2 L 1196.7 480.3 L 1200.9 489.1 L 1203.2 494.8 L 1209.7 504.1 L 1210.0 505.0 L 1210.0 549.8 L 1206.4 547.4 L 1200.0 539.7 L 1199.3 524.9 L 1197.2 506.5 L 1190.2 486.8 L 1176.8 463.5 L 1161.9 444.4 L 1150.0 426.1 L 1130.9 402.1 L 1111.2 388.7 L 1088.6 373.9 L 1055.4 357.7 L 1036.4 352.8 L 1021.6 355.6 L 1008.9 359.8 L 995.5 361.2 L 990.6 354.9 L 989.1 346.4 L 989.1 331.6 L 985.6 318.2 L 975.7 311.9 L 966.6 309.7 L 951.1 310.4 L 938.4 309.0 L 923.6 306.9 L 907.3 304.8 L 893.2 303.4 L 889.5 302.9 L 887.7 306.8 L 870.1 305.7 L 841.7 305.7 L 821.8 306.9 L 803.7 306.9 L 785.0 304.5 L 768.7 302.7 L 767.9 302.4 L 764.7 306.4 L 756.9 306.1 L 741.5 297.9 L 719.1 294.9 L 691.3 293.0 L 681.1 289.4 L 669.1 282.3 L 670.8 282.5 L 678.8 283.3 L 686.6 283.8 L 699.3 282.7 L 714.2 282.4 L 726.8 282.7 L 737.3 282.8 L 747.8 283.1 L 756.3 283.1 L 765.8 282.8 L 774.8 282.6 L 780.4 281.9 L 783.1 281.5 L 785.5 282.5 z M 229.9 454.6 L 234.0 455.3 L 238.0 455.8 L 244.0 456.1 L 255.7 457.2 L 265.5 458.2 L 280.3 459.8 L 295.4 460.4 L 310.0 461.1 L 328.8 461.7 L 343.5 462.1 L 355.6 463.9 L 369.0 468.3 L 350.6 474.0 L 338.4 477.3 L 326.3 475.1 L 309.2 471.7 L 301.5 470.5 L 287.1 468.7 L 276.1 468.4 L 260.0 468.7 L 241.1 469.0 L 226.2 468.4 L 217.1 468.1 L 211.0 468.0 L 199.8 467.8 L 186.0 468.4 L 168.9 470.0 L 148.6 472.5 L 133.0 474.5 L 110.6 477.5 L 88.4 480.5 L 64.0 483.7 L 43.7 486.8 L 34.1 487.0 L 18.8 487.5 L 10.0 487.6 L 10.0 450.1 L 19.1 449.6 L 32.0 449.7 L 40.3 448.3 L 56.5 449.6 L 59.0 450.1 L 65.9 451.6 L 75.4 452.9 L 91.5 453.5 L 110.1 452.0 L 126.6 450.4 L 149.8 448.4 L 173.2 446.3 L 195.8 444.3 L 220.2 442.1 L 239.0 441.7 L 229.9 454.6 z M 311.2 503.0 L 330.1 507.6 L 350.3 512.2 L 367.3 515.4 L 384.3 515.4 L 401.2 517.4 L 416.3 518.7 L 430.0 519.3 L 443.7 519.3 L 461.3 524.6 L 474.3 529.1 L 477.3 530.5 L 483.2 529.9 L 491.8 528.7 L 514.3 525.5 L 542.9 533.1 L 564.4 538.3 L 587.9 542.2 L 619.2 550.7 L 646.0 565.0 L 662.3 577.4 L 678.0 590.5 L 693.6 600.3 L 708.0 605.5 L 724.3 612.0 L 750.4 619.2 L 768.7 623.1 L 782.4 626.4 L 790.9 631.6 L 798.1 640.8 L 800.7 651.2 L 798.1 659.0 L 797.4 666.9 L 803.3 672.7 L 813.1 680.6 L 812.4 694.9 L 805.9 709.9 L 801.3 721.0 L 799.4 730.8 L 804.0 740.6 L 814.4 751.0 L 830.1 756.9 L 849.0 762.1 L 873.8 767.4 L 890.8 767.4 L 914.3 770.0 L 946.2 768.7 L 973.0 773.9 L 989.3 783.0 L 1006.9 794.8 L 1018.7 798.7 L 1030.4 801.3 L 1039.6 807.2 L 1042.4 810.0 L 893.6 810.0 L 892.5 809.8 L 889.9 810.0 L 714.3 810.0 L 716.6 805.9 L 723.0 799.6 L 729.3 793.8 L 734.5 786.3 L 734.5 780.0 L 731.0 774.2 L 724.1 763.3 L 717.8 743.7 L 714.9 723.5 L 718.4 710.9 L 716.1 693.6 L 702.2 672.3 L 683.2 647.5 L 668.3 629.1 L 652.1 610.1 L 634.9 594.5 L 619.2 585.4 L 614.1 582.5 L 595.7 576.7 L 576.7 568.1 L 552.5 563.5 L 530.0 560.6 L 508.2 556.0 L 488.6 551.4 L 451.7 542.1 L 430.3 536.3 L 421.3 539.0 L 418.3 538.1 L 400.5 536.4 L 382.6 532.4 L 362.0 529.1 L 359.0 531.8 L 356.7 533.8 L 348.1 531.8 L 334.8 528.9 L 298.0 528.3 L 277.3 525.4 L 263.7 526.7 L 256.3 538.8 L 248.5 539.3 L 236.4 542.1 L 213.3 549.6 L 191.5 555.4 L 169.6 559.4 L 146.0 564.6 L 114.9 572.7 L 87.8 580.7 L 59.0 591.7 L 36.0 598.6 L 10.0 606.9 L 10.0 560.5 L 10.3 559.8 L 36.4 553.3 L 65.8 540.2 L 88.0 529.1 L 111.5 519.3 L 125.2 518.0 L 136.9 520.6 L 146.7 525.2 L 155.2 529.1 L 166.3 531.1 L 175.4 529.1 L 188.5 523.9 L 196.3 521.3 L 202.2 520.6 L 207.4 523.9 L 220.5 528.5 L 239.4 525.2 L 253.1 520.6 L 263.5 517.4 L 271.1 517.0 L 278.3 508.3 L 279.1 507.3 L 288.0 500.9 L 311.2 503.0 z M 1210.0 810.0 L 1195.3 810.0 L 1210.0 804.8 L 1210.0 810.0 z M 768.7 302.7 L 785.0 304.5 L 803.7 306.9 L 821.8 306.9 L 841.7 305.7 L 870.1 305.7 L 887.7 306.8 L 889.5 302.9 L 893.2 303.4 L 907.3 304.8 L 923.6 306.9 L 938.4 309.0 L 951.1 310.4 L 966.6 309.7 L 975.7 311.9 L 985.6 318.2 L 989.1 331.6 L 989.1 346.4 L 990.6 354.9 L 995.5 361.2 L 1008.9 359.8 L 1021.6 355.6 L 1036.4 352.8 L 1055.4 357.7 L 1088.6 373.9 L 1111.2 388.7 L 1130.9 402.1 L 1150.0 426.1 L 1161.9 444.4 L 1176.8 463.5 L 1190.2 486.8 L 1197.2 506.5 L 1199.3 524.9 L 1200.0 539.7 L 1206.4 547.4 L 1210.0 549.8 L 1210.0 659.7 L 1205.3 655.8 L 1201.4 644.7 L 1196.2 623.8 L 1196.2 611.4 L 1192.3 598.3 L 1185.8 591.8 L 1177.3 584.6 L 1172.7 577.4 L 1169.4 567.6 L 1166.8 552.0 L 1166.2 535.0 L 1164.2 522.0 L 1160.3 516.1 L 1153.1 507.0 L 1146.6 494.6 L 1145.9 482.8 L 1141.4 467.1 L 1134.2 450.8 L 1128.3 438.4 L 1122.4 428.6 L 1097.0 408.4 L 1080.0 398.6 L 1056.5 386.9 L 1043.5 382.3 L 1023.9 374.5 L 1011.5 371.2 L 996.5 370.5 L 984.1 372.5 L 976.9 370.5 L 970.4 363.4 L 967.1 354.2 L 960.6 343.8 L 943.0 332.0 L 925.3 326.8 L 901.8 321.6 L 886.2 319.6 L 877.7 320.2 L 879.9 316.3 L 841.9 316.4 L 790.9 316.3 L 758.2 314.6 L 764.7 306.4 L 767.9 302.4 L 768.7 302.7 z M 1103.2 10.8 L 1103.2 13.3 L 1103.9 17.1 L 1105.2 20.8 L 1109.3 26.7 L 1113.4 30.3 L 1119.9 34.1 L 1126.0 36.5 L 1133.1 38.5 L 1140.4 38.9 L 1147.2 39.1 L 1153.5 42.4 L 1157.3 46.7 L 1159.2 52.1 L 1159.3 56.8 L 1160.6 61.7 L 1163.1 65.8 L 1167.9 67.8 L 1176.2 68.1 L 1178.4 68.2 L 1181.9 65.5 L 1185.0 67.2 L 1187.7 68.6 L 1191.6 71.4 L 1197.3 74.3 L 1202.4 77.0 L 1210.0 80.2 L 1210.0 99.0 L 1204.5 97.7 L 1198.0 93.4 L 1192.6 88.0 L 1187.1 84.5 L 1177.6 82.2 L 1169.6 81.2 L 1162.3 80.2 L 1157.1 77.7 L 1153.3 74.5 L 1151.4 71.1 L 1148.9 62.7 L 1146.6 56.6 L 1143.6 51.8 L 1140.3 49.5 L 1136.9 49.0 L 1135.4 53.9 L 1133.1 53.9 L 1131.7 53.8 L 1129.0 53.6 L 1126.4 53.6 L 1122.7 52.6 L 1117.3 50.4 L 1111.8 47.4 L 1108.9 45.4 L 1105.2 41.5 L 1100.4 35.6 L 1095.8 27.3 L 1093.7 19.0 L 1102.6 10.0 L 1103.1 10.0 L 1103.2 10.8 z M 82.6 123.6 L 90.6 130.7 L 97.6 134.7 L 109.5 137.2 L 119.3 137.3 L 130.5 136.1 L 137.1 134.5 L 140.0 133.6 L 140.5 133.5 L 128.8 159.0 L 117.0 178.7 L 104.7 195.4 L 96.3 188.4 L 92.3 184.3 L 90.0 181.6 L 87.1 178.9 L 77.8 193.1 L 61.5 186.7 L 34.0 182.8 L 12.9 180.3 L 10.0 180.2 L 10.0 160.4 L 15.5 157.3 L 49.3 133.0 L 51.2 130.4 L 68.5 113.2 L 82.6 123.6 z M 475.7 235.4 L 486.7 243.3 L 499.1 251.1 L 514.8 259.6 L 516.8 260.4 L 515.6 264.5 L 525.3 272.0 L 535.7 281.8 L 550.1 288.9 L 564.4 292.2 L 578.8 294.2 L 586.0 295.8 L 598.4 285.9 L 603.7 278.6 L 604.9 278.5 L 619.4 278.5 L 633.9 281.6 L 656.6 288.6 L 663.7 281.5 L 669.1 282.3 L 681.1 289.4 L 691.3 293.0 L 719.1 294.9 L 741.5 297.9 L 756.9 306.1 L 719.1 304.6 L 660.7 301.1 L 645.1 299.6 L 638.7 304.2 L 625.7 314.2 L 606.6 308.9 L 588.2 306.0 L 575.6 304.0 L 573.8 303.7 L 556.0 300.9 L 542.7 298.0 L 533.5 295.1 L 526.6 288.2 L 518.5 279.6 L 512.4 274.8 L 514.3 268.5 L 507.0 266.1 L 497.8 265.5 L 481.5 259.6 L 472.4 254.4 L 456.7 245.2 L 449.9 242.7 L 447.3 241.8 L 448.6 240.5 L 460.3 228.7 L 463.3 226.0 L 475.7 235.4 z M 491.4 209.5 L 500.1 219.3 L 506.9 225.9 L 514.2 230.4 L 520.0 233.2 L 525.6 235.9 L 523.4 241.5 L 525.9 243.2 L 531.6 247.5 L 539.1 252.7 L 548.8 258.4 L 562.0 263.9 L 571.6 267.1 L 581.9 269.4 L 590.9 270.0 L 601.1 270.5 L 606.0 270.5 L 609.7 270.1 L 614.0 269.7 L 622.3 268.8 L 631.3 269.3 L 637.7 272.0 L 644.9 275.7 L 653.9 278.7 L 662.3 281.3 L 663.7 281.5 L 656.6 288.6 L 633.9 281.6 L 619.4 278.5 L 604.9 278.5 L 603.7 278.6 L 589.8 279.1 L 574.7 277.3 L 560.8 274.3 L 549.4 269.5 L 533.7 261.6 L 519.4 252.1 L 520.5 248.7 L 522.0 245.0 L 511.4 241.1 L 502.4 235.6 L 492.2 229.0 L 485.8 223.3 L 478.7 216.6 L 476.0 214.4 L 485.9 202.4 L 491.4 209.5 z M 597.3 613.2 L 599.5 615.0 L 602.2 617.1 L 606.8 621.1 L 611.9 624.1 L 616.4 629.2 L 620.3 636.8 L 625.1 648.2 L 625.1 657.5 L 624.8 664.3 L 625.7 673.3 L 628.1 683.3 L 633.3 694.1 L 636.0 703.3 L 634.9 712.9 L 633.2 718.0 L 630.6 726.9 L 636.9 746.4 L 642.9 753.0 L 647.7 759.5 L 650.8 766.1 L 653.2 773.8 L 654.2 778.2 L 654.2 783.6 L 655.3 789.9 L 656.3 796.8 L 656.4 805.7 L 655.8 810.0 L 630.7 810.0 L 631.5 807.8 L 633.6 799.9 L 634.8 795.1 L 635.9 787.3 L 636.6 777.1 L 634.2 768.1 L 629.5 758.1 L 623.0 748.1 L 617.9 739.0 L 612.9 726.3 L 609.1 710.4 L 605.8 694.9 L 599.8 675.8 L 593.6 662.1 L 586.9 649.7 L 580.1 637.9 L 575.5 633.0 L 596.8 612.8 L 597.3 613.2 z M 175.4 83.3 L 180.0 89.9 L 186.5 100.3 L 194.4 111.4 L 204.1 118.6 L 217.8 127.1 L 228.3 132.3 L 238.7 137.5 L 247.9 142.7 L 251.8 150.6 L 255.0 156.4 L 258.3 159.1 L 262.2 160.4 L 275.9 162.3 L 306.0 166.2 L 317.1 171.5 L 325.5 176.0 L 336.6 181.2 L 345.8 185.8 L 358.2 191.0 L 371.9 198.9 L 383.0 205.4 L 412.4 216.8 L 420.3 208.7 L 425.3 203.2 L 428.0 206.7 L 433.2 213.2 L 439.1 224.3 L 448.6 240.5 L 447.3 241.8 L 447.0 242.1 L 440.2 246.7 L 438.9 247.8 L 426.7 236.7 L 415.6 228.9 L 406.5 224.3 L 404.9 223.3 L 398.3 228.8 L 395.9 230.7 L 395.4 230.2 L 383.6 223.7 L 368.0 217.8 L 356.2 215.2 L 344.5 210.6 L 332.1 204.7 L 316.4 194.3 L 300.7 186.5 L 283.1 178.6 L 267.5 172.1 L 255.0 169.5 L 246.6 166.9 L 234.2 161.0 L 223.1 153.8 L 209.4 144.0 L 194.4 133.0 L 168.2 119.9 L 151.5 115.7 L 170.3 79.0 L 170.5 78.0 L 175.4 83.3 z M 401.2 287.6 L 425.4 294.2 L 441.7 297.4 L 455.4 300.7 L 467.8 302.0 L 479.6 304.0 L 485.4 305.3 L 489.4 306.5 L 486.6 309.6 L 500.4 313.5 L 504.5 314.3 L 511.1 315.6 L 519.9 317.6 L 527.0 318.9 L 533.7 320.2 L 544.7 321.4 L 552.5 322.3 L 563.0 322.6 L 572.8 323.4 L 581.4 324.4 L 595.7 326.3 L 607.9 328.0 L 610.6 325.9 L 635.3 332.4 L 657.8 336.7 L 683.2 340.9 L 722.0 339.5 L 735.1 340.1 L 730.1 345.7 L 736.2 346.2 L 750.3 348.3 L 763.8 349.4 L 785.4 354.3 L 799.4 360.8 L 817.8 365.1 L 832.7 369.8 L 839.1 363.1 L 845.4 366.3 L 859.6 374.0 L 875.8 382.5 L 896.2 391.7 L 906.1 402.3 L 917.4 409.3 L 933.6 418.5 L 949.1 423.4 L 974.5 427.6 L 998.5 429.8 L 1028.8 435.4 L 1051.4 444.6 L 1066.2 456.6 L 1074.7 465.7 L 1086.0 481.2 L 1094.4 505.2 L 1093.0 518.6 L 1089.5 522.9 L 1084.5 527.1 L 1078.2 534.8 L 1074.0 548.3 L 1067.6 559.5 L 1061.3 568.7 L 1051.4 577.2 L 1037.3 584.9 L 1021.8 591.3 L 1009.8 594.8 L 983.7 601.2 L 951.3 606.8 L 925.9 608.2 L 911.1 606.1 L 904.7 602.6 L 896.2 596.2 L 882.1 592.0 L 865.9 584.2 L 839.8 577.9 L 818.7 571.5 L 795.4 563.8 L 774.2 554.6 L 753.1 548.3 L 733.3 541.2 L 706.5 532.7 L 680.4 529.9 L 662.2 529.7 L 654.0 528.3 L 632.0 523.9 L 624.2 522.2 L 617.7 521.1 L 612.4 519.9 L 608.7 519.3 L 605.3 518.9 L 596.8 516.6 L 572.4 518.6 L 544.7 513.0 L 533.2 509.7 L 522.2 507.2 L 510.3 504.9 L 493.8 500.7 L 482.9 496.7 L 472.4 493.4 L 461.0 489.9 L 450.2 487.9 L 440.5 486.2 L 429.0 484.4 L 417.8 482.6 L 406.7 480.8 L 395.3 478.3 L 388.9 476.7 L 383.3 475.2 L 369.0 468.3 L 387.3 458.3 L 397.6 462.4 L 397.8 462.9 L 402.1 463.7 L 407.3 465.0 L 414.3 466.9 L 423.5 469.7 L 429.4 471.2 L 438.7 473.3 L 451.8 475.6 L 462.7 477.5 L 479.8 479.9 L 486.9 480.0 L 512.6 481.9 L 535.1 484.1 L 555.6 489.0 L 576.7 492.5 L 597.9 498.2 L 609.9 501.0 L 635.3 503.1 L 653.6 505.2 L 671.2 511.6 L 691.0 513.7 L 711.4 517.9 L 734.0 523.6 L 753.8 531.3 L 776.9 536.7 L 794.2 541.6 L 817.5 549.2 L 844.6 556.8 L 871.1 563.8 L 903.6 576.2 L 918.8 582.8 L 939.9 584.9 L 965.9 582.2 L 983.7 577.9 L 1003.8 574.1 L 1031.9 562.2 L 1040.1 557.3 L 1049.3 541.1 L 1053.0 530.8 L 1053.6 517.8 L 1050.3 503.2 L 1039.0 489.1 L 1028.1 479.3 L 1013.5 469.0 L 1008.1 463.6 L 996.7 455.0 L 986.4 451.2 L 963.2 446.3 L 941.5 440.9 L 917.7 431.7 L 903.1 423.0 L 890.6 412.2 L 876.5 403.0 L 860.8 397.0 L 829.4 384.6 L 822.2 380.8 L 818.8 384.3 L 802.4 381.0 L 789.0 377.5 L 777.9 373.4 L 743.5 365.8 L 728.9 363.5 L 719.6 363.5 L 706.8 360.6 L 684.6 360.6 L 658.4 356.5 L 622.8 351.2 L 596.0 349.5 L 569.1 344.2 L 540.9 340.5 L 509.6 336.6 L 493.9 332.7 L 475.1 327.2 L 480.1 318.5 L 478.9 318.2 L 476.5 317.5 L 471.7 317.0 L 464.4 316.2 L 458.2 315.9 L 450.4 314.7 L 442.2 314.1 L 435.6 313.8 L 429.2 313.5 L 421.9 313.2 L 415.2 312.7 L 409.5 311.4 L 402.5 309.4 L 394.0 305.4 L 386.4 300.2 L 381.4 296.9 L 394.7 285.2 L 401.2 287.6 z M 354.1 572.6 L 360.5 573.4 L 365.3 573.9 L 371.6 574.7 L 381.4 576.5 L 388.0 578.0 L 395.7 579.0 L 403.8 579.8 L 412.1 581.1 L 421.1 582.6 L 429.8 584.9 L 439.1 587.9 L 449.0 589.7 L 459.0 591.2 L 468.0 593.2 L 478.3 595.8 L 489.7 601.5 L 497.4 605.7 L 506.9 611.0 L 516.7 616.5 L 526.4 620.4 L 533.9 622.3 L 512.6 626.4 L 512.7 626.9 L 508.2 627.7 L 505.9 624.9 L 489.4 616.0 L 481.6 613.8 L 474.0 612.0 L 463.1 610.7 L 453.3 609.2 L 443.6 606.9 L 433.9 604.4 L 424.1 601.2 L 415.8 598.0 L 407.3 594.4 L 398.4 592.0 L 391.5 590.4 L 382.6 587.7 L 375.2 585.5 L 368.2 583.2 L 363.4 582.0 L 359.7 581.9 L 354.5 581.9 L 348.9 581.9 L 344.1 582.0 L 341.6 582.0 L 336.1 581.8 L 330.2 581.9 L 329.0 581.7 L 325.8 582.2 L 337.3 573.5 L 343.4 572.3 L 346.1 572.3 L 350.3 572.3 L 354.1 572.6 z M 168.2 119.9 L 194.4 133.0 L 209.4 144.0 L 223.1 153.8 L 234.2 161.0 L 246.6 166.9 L 255.0 169.5 L 267.5 172.1 L 283.1 178.6 L 300.7 186.5 L 316.4 194.3 L 332.1 204.7 L 344.5 210.6 L 356.2 215.2 L 368.0 217.8 L 383.6 223.7 L 395.4 230.2 L 395.9 230.7 L 394.3 232.1 L 389.5 235.1 L 387.5 233.5 L 376.4 227.6 L 364.7 225.0 L 354.9 224.3 L 347.3 222.4 L 347.1 222.4 L 342.5 219.8 L 332.1 213.9 L 322.9 208.0 L 313.1 202.1 L 303.3 198.9 L 294.9 196.9 L 293.5 195.0 L 291.6 192.3 L 275.9 183.9 L 269.4 181.2 L 260.3 181.2 L 251.8 181.2 L 242.6 181.9 L 234.2 179.3 L 224.4 175.4 L 217.2 170.2 L 212.6 165.6 L 206.1 158.4 L 192.4 147.3 L 174.8 135.6 L 156.5 130.3 L 141.4 132.2 L 147.6 123.4 L 151.5 115.7 L 168.2 119.9 z M 57.5 295.7 L 68.9 299.5 L 80.6 301.3 L 94.2 302.1 L 111.6 302.7 L 123.8 303.2 L 130.5 303.4 L 146.4 303.8 L 161.2 304.8 L 175.1 305.7 L 192.2 306.6 L 206.6 307.4 L 217.7 307.9 L 233.4 308.5 L 247.2 308.7 L 266.7 310.4 L 274.7 311.1 L 287.9 314.6 L 297.6 317.8 L 304.7 321.1 L 310.7 323.8 L 320.4 329.0 L 329.4 332.7 L 335.5 335.1 L 342.8 336.5 L 346.9 337.9 L 350.6 338.7 L 351.4 339.1 L 342.8 348.1 L 340.1 351.1 L 325.9 347.2 L 302.6 336.9 L 268.5 328.8 L 252.8 325.5 L 232.2 324.5 L 207.9 323.9 L 179.7 320.1 L 157.0 319.0 L 144.0 316.9 L 122.3 315.3 L 112.0 316.2 L 99.6 317.4 L 81.7 316.9 L 62.7 313.6 L 52.5 309.8 L 40.5 304.4 L 34.8 300.4 L 40.2 283.9 L 57.5 295.7 z M 561.0 657.2 L 562.1 658.5 L 564.1 660.9 L 567.5 665.1 L 572.6 670.2 L 576.2 674.9 L 579.0 680.3 L 582.7 692.5 L 585.5 704.9 L 587.8 717.6 L 589.7 730.0 L 590.8 741.7 L 591.3 752.2 L 593.6 763.7 L 597.5 773.7 L 602.0 784.4 L 602.7 789.7 L 603.3 800.2 L 603.9 810.0 L 551.2 810.0 L 555.9 805.2 L 566.6 794.8 L 567.2 783.4 L 566.3 777.9 L 556.9 765.3 L 553.0 757.6 L 548.3 740.6 L 546.5 731.3 L 543.6 719.7 L 540.7 710.4 L 542.1 696.0 L 541.4 691.7 L 541.1 681.2 L 541.3 675.1 L 541.3 673.6 L 541.4 671.5 L 557.8 654.3 L 561.0 657.2 z M 431.2 198.8 L 433.0 199.4 L 436.1 201.8 L 439.7 204.8 L 443.7 208.2 L 449.7 214.3 L 453.8 219.3 L 460.3 228.7 L 448.6 240.5 L 439.1 224.3 L 433.2 213.2 L 428.0 206.7 L 425.3 203.2 L 428.5 199.5 L 430.1 197.7 L 431.2 198.8 z M 1147.0 92.0 L 1148.8 94.4 L 1151.4 97.4 L 1151.6 97.8 L 1153.1 99.8 L 1157.5 104.0 L 1163.3 108.6 L 1171.2 113.1 L 1177.4 116.5 L 1185.6 120.3 L 1194.8 123.2 L 1206.3 124.3 L 1210.0 124.2 L 1210.0 128.4 L 1204.5 128.2 L 1190.7 127.8 L 1176.8 124.8 L 1167.3 120.1 L 1157.4 113.5 L 1149.9 108.3 L 1145.0 102.2 L 1137.7 93.8 L 1145.4 89.5 L 1147.0 92.0 z M 198.1 15.5 L 204.4 26.4 L 209.0 32.9 L 211.3 36.2 L 218.4 43.9 L 224.7 51.5 L 231.2 58.8 L 239.1 67.4 L 245.7 74.3 L 252.7 81.1 L 259.3 87.3 L 266.8 93.2 L 273.6 98.8 L 280.4 104.2 L 284.9 106.5 L 292.2 109.4 L 298.8 112.7 L 307.6 118.1 L 313.6 121.2 L 322.1 125.4 L 330.8 129.4 L 338.9 133.7 L 346.6 137.6 L 354.2 141.8 L 356.6 141.0 L 343.8 129.6 L 318.3 109.8 L 286.5 89.6 L 265.2 71.9 L 244.9 54.5 L 230.9 36.9 L 227.6 32.4 L 216.8 17.6 L 209.3 10.0 L 268.0 10.0 L 274.4 18.7 L 280.3 30.2 L 284.2 39.5 L 289.3 47.1 L 294.8 51.7 L 302.6 56.0 L 313.2 63.3 L 323.7 69.8 L 333.9 75.6 L 343.2 79.9 L 351.7 83.6 L 360.4 87.3 L 368.4 90.5 L 377.9 96.9 L 385.6 104.8 L 397.9 117.8 L 398.1 118.2 L 404.2 125.8 L 412.0 130.8 L 419.1 130.9 L 424.2 130.9 L 430.0 132.2 L 434.6 135.3 L 439.4 140.5 L 447.4 150.3 L 454.4 160.1 L 459.5 166.4 L 464.0 160.1 L 473.8 151.5 L 484.8 139.2 L 494.9 130.7 L 499.7 131.7 L 502.6 135.7 L 504.5 142.4 L 505.7 149.1 L 507.6 155.6 L 508.8 159.3 L 510.5 162.7 L 500.2 177.3 L 489.8 194.7 L 485.9 202.4 L 476.0 214.4 L 475.5 215.0 L 470.2 219.7 L 463.3 226.0 L 460.3 228.7 L 453.8 219.3 L 449.7 214.3 L 443.7 208.2 L 439.7 204.8 L 436.1 201.8 L 433.0 199.4 L 431.2 198.8 L 430.1 197.7 L 428.5 199.5 L 425.3 203.2 L 420.3 208.7 L 416.6 207.2 L 414.1 205.1 L 409.5 203.0 L 404.5 200.9 L 400.0 199.8 L 392.5 197.6 L 385.2 193.6 L 375.8 188.2 L 366.3 182.3 L 353.0 174.4 L 339.1 167.0 L 327.2 161.5 L 314.4 156.3 L 292.4 150.8 L 278.5 154.4 L 277.6 153.8 L 274.6 152.1 L 271.5 149.9 L 267.2 146.4 L 262.7 142.6 L 259.2 139.1 L 253.1 133.4 L 242.9 124.6 L 233.9 116.7 L 222.0 107.2 L 209.2 98.0 L 198.1 88.8 L 188.6 79.9 L 179.7 71.0 L 173.6 65.9 L 181.1 45.2 L 184.8 34.6 L 185.2 33.6 L 188.5 24.2 L 192.7 10.0 L 193.8 10.0 L 198.1 15.5 z M 307.0 582.2 L 307.1 582.2 L 308.7 582.2 L 312.6 581.8 L 318.2 581.8 L 325.8 582.2 L 317.0 594.7 L 328.4 595.1 L 339.6 595.1 L 351.5 595.8 L 366.4 597.3 L 379.8 600.1 L 392.0 603.8 L 407.3 608.6 L 420.7 612.4 L 433.3 615.9 L 442.5 619.1 L 452.2 621.9 L 462.0 623.3 L 469.0 625.6 L 472.7 628.1 L 475.4 630.1 L 477.6 632.0 L 478.5 633.0 L 508.2 627.7 L 512.7 626.9 L 513.2 628.1 L 513.6 629.8 L 514.3 632.8 L 515.5 636.5 L 515.8 638.1 L 516.9 640.4 L 518.4 643.7 L 520.0 647.9 L 521.3 652.5 L 522.0 655.3 L 519.4 658.2 L 517.2 661.5 L 521.4 665.0 L 523.0 667.8 L 524.2 673.1 L 527.1 679.1 L 527.8 689.6 L 517.8 701.3 L 519.7 708.9 L 519.3 717.2 L 517.4 723.5 L 515.4 728.8 L 513.8 736.5 L 515.0 744.8 L 516.3 749.3 L 517.8 759.2 L 517.9 764.6 L 521.5 770.4 L 522.2 775.8 L 526.5 787.8 L 530.4 797.4 L 531.2 805.1 L 530.1 810.0 L 331.7 810.0 L 332.3 798.8 L 331.0 787.9 L 326.4 777.6 L 319.7 767.6 L 311.2 759.7 L 303.7 753.3 L 296.1 748.2 L 285.4 744.7 L 275.2 742.9 L 266.2 738.9 L 258.7 733.0 L 252.4 728.4 L 246.4 726.1 L 242.2 726.8 L 238.0 732.9 L 233.1 741.1 L 224.1 744.9 L 216.0 746.8 L 211.8 748.5 L 206.9 750.7 L 196.5 752.7 L 186.0 753.7 L 176.7 755.1 L 167.4 758.1 L 158.3 764.2 L 151.4 772.6 L 146.6 780.4 L 142.1 788.3 L 140.6 799.3 L 142.4 810.0 L 10.0 810.0 L 10.0 691.5 L 15.4 688.1 L 15.9 687.6 L 30.7 679.9 L 46.1 671.3 L 68.6 659.8 L 84.3 653.0 L 97.9 648.0 L 115.5 643.5 L 129.0 640.5 L 139.5 637.0 L 149.3 631.4 L 163.4 625.2 L 174.6 621.9 L 187.4 618.5 L 197.6 614.5 L 210.3 608.8 L 222.3 605.0 L 234.5 602.1 L 248.4 600.3 L 256.5 598.0 L 266.5 595.1 L 274.6 593.9 L 280.7 593.3 L 284.8 593.0 L 286.8 592.5 L 289.6 592.1 L 300.0 579.2 L 307.0 582.2 z M 657.3 10.2 L 665.5 15.5 L 674.0 21.4 L 683.7 28.2 L 693.6 35.8 L 705.5 43.7 L 713.8 48.0 L 722.5 56.3 L 734.7 30.9 L 748.2 10.3 L 757.0 10.9 L 771.5 10.4 L 774.2 10.0 L 803.0 10.0 L 782.7 30.5 L 770.8 49.9 L 761.5 65.1 L 774.4 65.0 L 789.0 60.9 L 802.5 52.8 L 814.3 42.9 L 823.6 35.6 L 837.6 21.2 L 848.8 10.0 L 999.3 10.0 L 998.9 10.9 L 998.4 17.8 L 998.9 24.6 L 999.8 27.5 L 1000.0 28.3 L 1000.5 29.0 L 1007.3 27.6 L 1009.7 33.5 L 1014.1 40.6 L 1019.6 47.7 L 1023.1 51.3 L 1026.2 53.3 L 1027.4 54.0 L 1031.3 60.1 L 1034.9 67.0 L 1040.7 76.5 L 1042.1 78.5 L 1043.6 80.9 L 1044.7 82.4 L 1051.1 70.6 L 1056.8 76.6 L 1062.1 80.8 L 1068.8 85.8 L 1078.1 89.9 L 1088.8 93.0 L 1097.6 96.2 L 1104.4 99.4 L 1109.7 102.8 L 1113.3 105.6 L 1129.0 97.6 L 1135.2 105.3 L 1143.4 115.6 L 1149.8 122.9 L 1158.9 130.5 L 1166.2 134.4 L 1177.7 137.9 L 1187.0 139.3 L 1200.4 139.1 L 1210.0 137.2 L 1210.0 405.9 L 1208.5 403.6 L 1202.7 394.2 L 1196.7 384.9 L 1186.6 371.9 L 1176.8 363.3 L 1166.2 352.3 L 1157.3 344.4 L 1148.8 337.4 L 1135.5 326.6 L 1126.5 319.2 L 1113.4 310.1 L 1099.8 303.9 L 1088.3 299.1 L 1073.6 292.0 L 1062.6 286.3 L 1053.4 280.9 L 1044.2 272.2 L 1036.0 265.2 L 1035.7 265.1 L 1029.8 262.6 L 1020.7 259.6 L 1011.8 257.9 L 1001.6 256.3 L 991.6 254.8 L 979.5 252.1 L 966.4 250.8 L 951.9 249.9 L 937.3 250.8 L 922.3 254.9 L 925.7 250.0 L 923.2 250.3 L 911.9 251.5 L 901.0 253.5 L 884.4 258.3 L 864.6 259.6 L 851.6 260.8 L 843.5 260.8 L 835.8 261.2 L 827.3 263.2 L 822.9 264.8 L 819.7 266.0 L 815.6 267.3 L 812.0 267.3 L 807.1 265.6 L 803.5 263.2 L 800.6 261.6 L 793.8 260.8 L 781.2 259.6 L 756.1 258.8 L 738.3 257.5 L 722.1 255.1 L 698.3 253.1 L 689.4 251.1 L 685.6 250.4 L 682.1 249.9 L 673.2 247.8 L 652.1 245.8 L 639.6 242.2 L 631.1 240.1 L 634.8 234.8 L 633.8 234.5 L 631.1 233.5 L 627.9 232.3 L 625.1 231.7 L 620.6 229.6 L 613.1 225.3 L 593.5 218.6 L 584.0 217.5 L 575.6 217.2 L 569.4 216.5 L 562.3 214.5 L 549.9 210.9 L 537.5 207.7 L 543.4 194.9 L 548.9 177.3 L 545.0 173.2 L 540.9 169.8 L 537.0 167.5 L 528.2 177.5 L 517.2 185.4 L 485.9 202.4 L 489.8 194.7 L 500.2 177.3 L 510.5 162.7 L 508.8 159.3 L 507.6 155.6 L 505.7 149.1 L 504.5 142.4 L 502.6 135.7 L 499.7 131.7 L 494.9 130.7 L 484.8 139.2 L 473.8 151.5 L 464.0 160.1 L 459.5 166.4 L 454.4 160.1 L 447.4 150.3 L 439.4 140.5 L 434.6 135.3 L 430.0 132.2 L 424.2 130.9 L 419.1 130.9 L 412.0 130.8 L 404.2 125.8 L 398.1 118.2 L 397.9 117.8 L 385.6 104.8 L 377.9 96.9 L 368.4 90.5 L 360.4 87.3 L 351.7 83.6 L 343.2 79.9 L 333.9 75.6 L 323.7 69.8 L 313.2 63.3 L 302.6 56.0 L 294.8 51.7 L 289.3 47.1 L 284.2 39.5 L 280.3 30.2 L 274.4 18.7 L 268.0 10.0 L 657.0 10.0 L 657.3 10.2 z"
 style="fill:#9c0000; fill-opacity:0.1; fill-rule:evenodd; stroke:#ffa07a; stroke-opacity:1.0; stroke-width:0.8;"/>

<g stroke="black" stroke-width="3" fill="black">
  <circle cx="10" cy="10" r="0.1"/>
  <circle cx="1210" cy="10" r="0.1"/>
  <circle cx="1210" cy="810" r="0.1"/>
  <circle cx="10" cy="810" r="0.1"/>
  <circle cx="10" cy="10" r="0.1"/>
</g>
</g>
</g>
</svg>
